<ttFont>
          <CharString index="0">
            -37 -39 -33 -37 -7 hvcurveto
            -37 -6 27 -33 37 hhcurveto
            37 39 33 37 6 hvcurveto
            37 7 -27 33 -37 hhcurveto
            195 hmoveto
            -37 -39 -33 -37 -7 hvcurveto
            -37 -6 27 -33 37 hhcurveto
            37 39 33 37 6 hvcurveto
            37 7 -27 33 -37 hhcurveto
            endchar
          </CharString>
          <CharString index="1">
            420 hmoveto
            140 hlineto
            -82 -55 callsubr
            -19 callgsubr
            -328 -47 callgsubr
            73 160 rlineto
            200 hlineto
            -62 300 rmoveto
            13 30 13 45 0 vvcurveto
            4 hlineto
            0 -4 -43 4 -32 vhcurveto
            23 -210 -36 callgsubr
            return
          </CharString>
          <CharString index="2">
            rmoveto
            -32 -5 21 -28 43 hhcurveto
            -8 -45 -61 11 callsubr
            23 -34 rlineto
            0 94 50 21 115 vhcurveto
            47 8 -23 28 -42 hhcurveto
            -32 -33 -28 -37 -6 hvcurveto
            endchar
          </CharString>
          <CharString index="3">
            440 230 rmoveto
            -105 -18 -53 -45 -60 hhcurveto
            -60 -37 45 105 18 hvcurveto
            83 470 rlineto
            -91 callsubr
            -83 -470 -20 callsubr
            -26 74 -90 155 hhcurveto
            155 106 90 150 26 hvcurveto
            83 470 rlineto
            -91 callsubr
            return
          </CharString>
          <CharString index="4">
            -60 100 vlineto
            56 1 callsubr
            110 19 -66 80 -145 hhcurveto
            -100 -78 -50 0 hvcurveto
            31 -80 rlineto
            10 hlineto
            0 47 40 65 65 24 -30 -70 -12 vhcurveto
            -31 -175 rmoveto
            return
          </CharString>
          <CharString index="5">
            43 callgsubr
            40 41 35 40 7 hvcurveto
            40 7 return
          </CharString>
          <CharString index="6">
            175 rmoveto
            -8 -20 -9 -66 callgsubr
            4 35 -3 20 vhcurveto
            -42 325 rlineto
            -91 callsubr
            77 -5 callsubr
            40 hlineto
            -23 -50 rlineto
            -45 -20 -1 callsubr
            -30 -20 25 -81 callsubr
            -50 -85 rlineto
            0 44 -30 60 95 71 60 100 48 vhcurveto
            262 550 rlineto
            -91 callsubr
            return
          </CharString>
          <CharString index="7">
            85 rmoveto
            -45 -24 30 65 11 hvcurveto
            57 1 callsubr
            -91 callsubr
            -57 -320 rlineto
            -120 -21 58 -70 -69 callsubr
            return
          </CharString>
          <CharString index="8">
            8 45 77 15 callsubr
            -104 hlineto
            0 -64 -40 -8 -55 vhcurveto
            -55 -10 28 -35 75 hhcurveto
            50 34 25 0 hvcurveto
            12 67 rlineto
            -9 hlineto
            return
          </CharString>
          <CharString index="9">
            hstemhm
            -49 callsubr
            hintmask 10101100
            274 -100 callsubr
            hintmask 01101100
            -84 callgsubr
            hintmask 10101100
            -16 callsubr
            hintmask 00010000
            return
          </CharString>
          <CharString index="10">
            0 hvcurveto
            10 hlineto
            59 80 rlineto
            0 return
          </CharString>
          <CharString index="11">
            20 14 -10 -20 -4 hvcurveto
            -20 -3 -17 -10 -20 -25 -19 15 1 hhcurveto
            -9 hlineto
            -28 -50 rlineto
            0 30 -20 50 70 47 40 45 8 vhcurveto
            45 8 -33 40 -55 hhcurveto
            endchar
          </CharString>
          <CharString index="12">
            rmoveto
            -9 hlineto
            1 -23 -40 -25 hhcurveto
            hintmask 00001000
            -35 -13 45 -55 hhcurveto
            -50 -48 -50 -50 -14 hvcurveto
            51 -30 rlineto
            9 hlineto
            -1 23 40 25 hhcurveto
            hintmask 00100000
            35 12 -45 55 hhcurveto
            50 48 50 50 14 hvcurveto
            endchar
          </CharString>
          <CharString index="13">
            -86 callgsubr
            -60 55 return
          </CharString>
          <CharString index="14">
            20 50 9 hvcurveto
            -110 hlineto
            -90 -16 41 -50 110 hhcurveto
            110 59 50 90 16 hvcurveto
            -110 hlineto
            return
          </CharString>
          <CharString index="15">
            -88 -89 callsubr
            return
          </CharString>
          <CharString index="16">
            -140 hlineto
            return
          </CharString>
          <CharString index="17">
            -123 -47 callgsubr
            return
          </CharString>
          <CharString index="18">
            -5 callsubr
            140 hlineto
            return
          </CharString>
          <CharString index="19">
            rmoveto
            -40 -41 -35 -40 -8 hvcurveto
            -40 -7 -93 callgsubr
            7 hvcurveto
            40 8 -29 35 -40 hhcurveto
            endchar
          </CharString>
          <CharString index="20">
            -40 -7 29 -35 40 hhcurveto
            -9 -50 -71 -35 0 vvcurveto
            23 -40 rlineto
            0 118 45 return
          </CharString>
          <CharString index="21">
            313 21 -21 700 -12 callsubr
            420 -56 callgsubr
            490 115 rmoveto
            169 22 callgsubr
            20 30 17 36 0 vvcurveto
            4 hlineto
            0 -11 -36 -5 -30 vhcurveto
            -64 -365 rlineto
            36 callgsubr
            -265 -395 rlineto
            -13 -20 -14 -30 -83 callsubr
            -2 30 -7 20 vhcurveto
            -125 395 rlineto
            -135 -92 callgsubr
            64 365 rlineto
            5 30 1 36 0 vvcurveto
            4 hlineto
            0 5 -36 10 -30 vhcurveto
            81 -250 rlineto
            endchar
          </CharString>
          <CharString index="22">
            0 -33 70 -90 -115 -100 -85 -175 -30 vhcurveto
            -175 -31 70 -85 125 hhcurveto
            60 45 30 0 hvcurveto
            -5 -30 rlineto
            -70 -13 -47 -40 -65 hhcurveto
            -70 -33 40 -81 callsubr
            -59 -36 callsubr
            61 -50 105 150 100 85 115 21 vhcurveto
            return
          </CharString>
          <CharString index="23">
            hlineto
            16 90 rlineto
            return
          </CharString>
          <CharString index="24">
            0 vvcurveto
            -4 hlineto
            0 return
          </CharString>
          <CharString index="25">
            63 0 90 220 100 200 90 hstem
            65 -21 callgsubr
            64 310 rmoveto
            55 hlineto
            -54 -310 rlineto
            170 hlineto
            -67 callgsubr
            -51 -290 rlineto
            -55 hlineto
            138 -320 rmoveto
            39 220 -26 callsubr
            18 100 rlineto
            -95 hlineto
            35 200 -5 callgsubr
          </CharString>
          <CharString index="26">
            0 hvcurveto
            -10 hlineto
            return
          </CharString>
          <CharString index="27">
            105 hlineto
            -37 -210 rlineto
            0 -26 -10 -25 -90 -50 60 210 37 vhcurveto
            210 37 71 60 80 hhcurveto
            75 -94 callsubr
            -115 -165 -124 -105 -255 -45 vhcurveto
            return
          </CharString>
          <CharString index="28">
            rmoveto
            -43 callgsubr
            16 90 rlineto
            endchar
          </CharString>
          <CharString index="29">
            465 hmoveto
            15 90 rlineto
            -295 hlineto
            381 515 17 95 rlineto
            -450 hlineto
            -43 callgsubr
            -381 -515 -16 -95 rlineto
            return
          </CharString>
          <CharString index="30">
            14 36 91 vhcurveto
            46 115 rlineto
            25 9 12 10 20 hhcurveto
            10 9 -5 0 hvcurveto
            5 hlineto
            24 80 rlineto
            0 -32 15 -50 -70 -51 -45 -55 -22 vhcurveto
            -54 -135 rlineto
            -50 -20 -22 -20 -50 hhcurveto
            return
          </CharString>
          <CharString index="31">
            129 80 rmoveto
            -45 -38 40 -81 callsubr
            -55 -85 rlineto
            0 62 -45 80 145 94 80 120 21 vhcurveto
            90 510 rlineto
            -91 callsubr
            -90 -510 rlineto
            -75 -13 -41 -35 -60 hhcurveto
            return
          </CharString>
          <CharString index="32">
            -67 -66 callsubr
            hstem
            228 135 rmoveto
            15 20 5 20 0 vvcurveto
            4 hlineto
            0 -1 -20 7 -20 vhcurveto
            52 -135 rlineto
            145 hlineto
            -106 255 189 245 rlineto
            -145 hlineto
            -93 -130 rlineto
            -15 -20 -5 -20 -83 callsubr
            1 20 -7 20 vhcurveto
            -47 130 rlineto
            -145 hlineto
            101 -245 -194 -255 rlineto
            145 hlineto
            endchar
          </CharString>
          <CharString index="33">
            300 hmoveto
            107 610 rlineto
            175 -84 callsubr
            -490 -59 callsubr
            175 hlineto
            -107 -610 rlineto
            return
          </CharString>
          <CharString index="34">
            -50 callgsubr
            215 90 115 90 return
          </CharString>
          <CharString index="35">
            -56 -320 rlineto
            140 hlineto
            56 1 callsubr
            120 21 -58 70 return
          </CharString>
          <CharString index="36">
            rmoveto
            -17 -35 -9 -40 -83 callsubr
            2 40 -7 35 vhcurveto
            -71 335 rlineto
            -145 hlineto
            123 -515 rlineto
            41 hlineto
            -24 -50 rlineto
            -35 -16 -29 -25 -35 hhcurveto
            -35 -21 25 -81 callsubr
            -50 -85 rlineto
            0 45 -30 65 105 74 65 85 42 vhcurveto
            280 565 rlineto
            -145 hlineto
            endchar
          </CharString>
          <CharString index="37">
            hhcurveto
            90 57 70 0 hvcurveto
            5 hlineto
            return
          </CharString>
          <CharString index="38">
            120 -70 callsubr
            return
          </CharString>
          <CharString index="39">
            -337 -114 -21 146 -21 150 -20 hstemhm
            10 150 -75 75 hintmask 11110000
            21 65 rmoveto
            hintmask 11101000
            -87 callsubr
            25 -54 callgsubr
            hintmask 11110000
            5 callgsubr
            endchar
          </CharString>
          <CharString index="40">
            -13 -20 -8 -25 -83 callsubr
            0 25 -5 20 vhcurveto
            return
          </CharString>
          <CharString index="41">
            21 -51 callgsubr
            return
          </CharString>
          <CharString index="42">
            -45 3 28 -35 70 hhcurveto
            45 37 15 0 hvcurveto
            -1 80 rlineto
            -5 hlineto
            0 -10 -5 -10 -10 -10 10 15 -1 vhcurveto
            -6 80 rlineto
            -4 65 return
          </CharString>
          <CharString index="43">
            -47 callsubr
            hstemhm
            return
          </CharString>
          <CharString index="44">
            88 -30 callgsubr
            return
          </CharString>
          <CharString index="45">
            230 hmoveto
            -67 callgsubr
            -91 callgsubr
            155 90 rmoveto
            92 520 -57 callsubr
            return
          </CharString>
          <CharString index="46">
            rmoveto
            -91 callgsubr
            410 hlineto
            15 90 rlineto
            -270 hlineto
            108 610 rlineto
            return
          </CharString>
          <CharString index="47">
            -10 90 125 -1 callgsubr
            return
          </CharString>
          <CharString index="48">
            hlineto
            -16 -90 rlineto
            return
          </CharString>
          <CharString index="49">
            rmoveto
            100 88 75 105 18 hvcurveto
            105 19 -62 75 -100 hhcurveto
            -100 -88 -75 -105 -19 hvcurveto
            -105 -18 62 -75 100 hhcurveto
            hintmask 1010101111110000
            14 80 rmoveto
            -30 -21 25 75 13 hvcurveto
            75 14 29 25 30 hhcurveto
            30 21 -25 -75 -14 hvcurveto
            -75 -13 -1 callsubr
            return
          </CharString>
          <CharString index="50">
            rlineto
            30 hlineto
            110 49 -60 -200 -35 hvcurveto
            -200 -35 -71 -60 -110 hhcurveto
            return
          </CharString>
          <CharString index="51">
            14 80 rmoveto
            -30 -20 25 75 13 hvcurveto
            75 13 30 25 30 hhcurveto
            30 20 -25 -75 -13 hvcurveto
            -75 -13 -30 -25 -30 hhcurveto
            return
          </CharString>
          <CharString index="52">
            700 rlineto
            return
          </CharString>
          <CharString index="53">
            -37 -60 callsubr
            return
          </CharString>
          <CharString index="54">
            105 18 -61 75 -100 hhcurveto
            -100 -89 -75 -105 -18 hvcurveto
            -105 -19 62 -75 100 hhcurveto
            return
          </CharString>
          <CharString index="55">
            -10 -40 callsubr
            return
          </CharString>
          <CharString index="56">
            15 140 return
          </CharString>
          <CharString index="57">
            -44 callgsubr
            36 -560 rmoveto
            -31 callgsubr
            -115 hlineto
            -205 -200 -14 -80 21 callsubr
            hlineto
            -10 -60 rlineto
            120 hlineto
            10 60 rlineto
            45 hlineto
            14 80 rlineto
            return
          </CharString>
          <CharString index="58">
            -62 callgsubr
            -65 callgsubr
            return
          </CharString>
          <CharString index="59">
            rmoveto
            -9 hlineto
            1 -23 -40 -25 hhcurveto
            hintmask 00000100
            -35 -13 45 -55 hhcurveto
            -50 -48 -50 -50 -14 hvcurveto
            51 -30 rlineto
            9 hlineto
            -1 23 40 25 hhcurveto
            hintmask 00010000
            35 12 -45 55 hhcurveto
            50 48 50 50 14 hvcurveto
            endchar
          </CharString>
          <CharString index="60">
            -21 134 -20 return
          </CharString>
          <CharString index="61">
            145 26 -26 callgsubr
            return
          </CharString>
          <CharString index="62">
            394 365 rmoveto
            269 335 rlineto
            -155 hlineto
            -240 -310 55 310 rlineto
            -140 -92 callgsubr
            58 330 137 -330 rlineto
            160 hlineto
            return
          </CharString>
          <CharString index="63">
            rmoveto
            -25 -12 15 20 3 hvcurveto
            return
          </CharString>
          <CharString index="64">
            rlineto
            280 -84 callsubr
            -420 hlineto
            -91 callgsubr
            return
          </CharString>
          <CharString index="65">
            0 callgsubr
            65 hlineto
            117 150 rlineto
            return
          </CharString>
          <CharString index="66">
            -70 85 -135 hhcurveto
            return
          </CharString>
          <CharString index="67">
            90 340 90 return
          </CharString>
          <CharString index="68">
            1 -26 -22 12 callgsubr
          </CharString>
          <CharString index="69">
            rmoveto
            -70 hlineto
            -14 -80 rlineto
            260 hlineto
            14 80 rlineto
            -70 hlineto
            46 260 rlineto
            return
          </CharString>
          <CharString index="70">
            73 -11 callsubr
            return
          </CharString>
          <CharString index="71">
            -80 rlineto
            0 return
          </CharString>
          <CharString index="72">
            hlineto
            8 callsubr
            145 25 hvcurveto
            -46 callsubr
            return
          </CharString>
          <CharString index="73">
            -80 -55 0 hvcurveto
            31 -80 rlineto
            10 hlineto
            0 53 45 return
          </CharString>
          <CharString index="74">
            rmoveto
            -75 hlineto
            -18 -100 rlineto
            50 hlineto
            return
          </CharString>
          <CharString index="75">
            140 0 callsubr
            return
          </CharString>
          <CharString index="76">
            -21 240 -20 return
          </CharString>
          <CharString index="77">
            -91 callsubr
            -73 -410 rlineto
            -130 hlineto
            73 410 rlineto
            -91 callsubr
            -73 -410 rlineto
            -130 hlineto
            73 410 rlineto
            -91 callsubr
            return
          </CharString>
          <CharString index="78">
            138 -87 callgsubr
            return
          </CharString>
          <CharString index="79">
            -20 hstemhm
            15 -9 callgsubr
            return
          </CharString>
          <CharString index="80">
            0 -39 10 -35 -8 callsubr
            vhcurveto
            -5 hlineto
            return
          </CharString>
          <CharString index="81">
            rlineto
            95 hlineto
            return
          </CharString>
          <CharString index="82">
            -88 -5 callsubr
            return
          </CharString>
          <CharString index="83">
            210 140 return
          </CharString>
          <CharString index="84">
            140 -94 callgsubr
            return
          </CharString>
          <CharString index="85">
            rmoveto
            -40 -42 -102 callsubr
            -28 35 -40 hhcurveto
            endchar
          </CharString>
          <CharString index="86">
            -12 callgsubr
            250 140 return
          </CharString>
          <CharString index="87">
            rlineto
            -150 return
          </CharString>
          <CharString index="88">
            410 rmoveto
            35 33 -10 0 hvcurveto
            10 hlineto
            return
          </CharString>
          <CharString index="89">
            hstemhm
            -21 callsubr
            return
          </CharString>
          <CharString index="90">
            70 -70 140 hstemhm
            return
          </CharString>
          <CharString index="91">
            0 -41 -60 -55 vhcurveto
            return
          </CharString>
          <CharString index="92">
            41 35 40 return
          </CharString>
          <CharString index="93">
            -37 -39 -33 -37 -6 hvcurveto
            -37 -7 27 -33 37 hhcurveto
            37 39 33 37 7 hvcurveto
            37 6 -27 33 -37 hhcurveto
            return
          </CharString>
          <CharString index="94">
            rmoveto
            90 33 -40 -95 -17 hvcurveto
            -95 -17 -47 -40 -90 hhcurveto
            return
          </CharString>
          <CharString index="95">
            -20 hstem
            -45 callgsubr
            return
          </CharString>
          <CharString index="96">
            -10 90 540 90 return
          </CharString>
          <CharString index="97">
            86 -6 callgsubr
            27 callsubr
            return
          </CharString>
          <CharString index="98">
            -6 callsubr
            -51 callsubr
            return
          </CharString>
          <CharString index="99">
            -90 -57 -70 0 return
          </CharString>
          <CharString index="100">
            44 22 callgsubr
            return
          </CharString>
          <CharString index="101">
            150 hstemhm
            return
          </CharString>
          <CharString index="102">
            -500 rlineto
            return
          </CharString>
          <CharString index="103">
            hlineto
            45 17 -20 -45 2 hvcurveto
            6 -160 rlineto
            return
          </CharString>
          <CharString index="104">
            -40 -7 hvcurveto
            -40 -7 return
          </CharString>
          <CharString index="105">
            rlineto
            16 callsubr
            return
          </CharString>
          <CharString index="106">
            -29 -25 -30 hhcurveto
            return
          </CharString>
          <CharString index="107">
            55 140 return
          </CharString>
          <CharString index="108">
            320 rlineto
            return
          </CharString>
          <CharString index="109">
            41 callsubr
            0 callsubr
            -2 callgsubr
            return
          </CharString>
          <CharString index="110">
            100 64 60 110 26 hvcurveto
            104 450 -2 callsubr
            -107 -610 rlineto
            return
          </CharString>
          <CharString index="111">
            hlineto
            30 11 -15 -25 1 hvcurveto
            8 -100 rlineto
            return
          </CharString>
          <CharString index="112">
            120 9 callgsubr
            return
          </CharString>
          <CharString index="113">
            140 hintmask 11001000
            return
          </CharString>
          <CharString index="114">
            155 140 return
          </CharString>
          <CharString index="115">
            190 94 80 return
          </CharString>
          <CharString index="116">
            21 -21 410 return
          </CharString>
          <CharString index="117">
            700 rmoveto
            return
          </CharString>
          <CharString index="118">
            -36 0 vvcurveto
            return
          </CharString>
          <CharString index="119">
            -440 rlineto
            -10 -25 41 callgsubr
            25 vhcurveto
            return
          </CharString>
          <CharString index="120">
            -72 -410 rlineto
            140 hlineto
            return
          </CharString>
          <CharString index="121">
            -179 -21 190 return
          </CharString>
          <CharString index="122">
            35 0 vvcurveto
            return
          </CharString>
          <CharString index="123">
            150 hlineto
            return
          </CharString>
          <CharString index="124">
            -10 90 130 90 120 90 hstem
            return
          </CharString>
          <CharString index="125">
            -75 callgsubr
            70 -6 callsubr
            return
          </CharString>
          <CharString index="126">
            48 270 rlineto
            return
          </CharString>
          <CharString index="127">
            -60 -10 -47 -40 return
          </CharString>
          <CharString index="128">
            rlineto
            165 return
          </CharString>
          <CharString index="129">
            rmoveto
            -67 callsubr
            return
          </CharString>
          <CharString index="130">
            hstem
            -49 callsubr
            vstem
            573 500 rmoveto
            return
          </CharString>
          <CharString index="131">
            34 callgsubr
            -65 29 callgsubr
          </CharString>
          <CharString index="132">
            35 20 callgsubr
            vhcurveto
            -56 -320 rlineto
            140 hlineto
            return
          </CharString>
          <CharString index="133">
            -10 -21 hhcurveto
            -10 -9 5 0 hvcurveto
            -5 hlineto
            -24 -80 rlineto
            return
          </CharString>
          <CharString index="134">
            -59 callgsubr
            175 hhcurveto
            return
          </CharString>
          <CharString index="135">
            90 -45 callgsubr
            hstemhm
            -51 callsubr
            return
          </CharString>
          <CharString index="136">
            -222 -170 90 315 90 315 90 hstemhm
            return
          </CharString>
          <CharString index="137">
            37 callgsubr
            80 return
          </CharString>
          <CharString index="138">
            -8 callgsubr
            315 90 215 90 -10 -20 return
          </CharString>
          <CharString index="139">
            -21 415 95 -10 -20 return
          </CharString>
          <CharString index="140">
            -87 0 90 320 90 return
          </CharString>
          <CharString index="141">
            -35 -3 callsubr
            return
          </CharString>
          <CharString index="142">
            21 -21 610 90 87 -64 callsubr
            return
          </CharString>
          <CharString index="143">
            -51 callgsubr
            220 -20 hstemhm
            -62 callgsubr
            return
          </CharString>
          <CharString index="144">
            rlineto
            140 hlineto
            40 230 return
          </CharString>
          <CharString index="145">
            45 20 callgsubr
            return
          </CharString>
          <CharString index="146">
            -20 hstem
            -62 callgsubr
            return
          </CharString>
          <CharString index="147">
            -12 callsubr
            15 callgsubr
            return
          </CharString>
          <CharString index="148">
            -21 355 95 50 90 110 -20 hstem
            return
          </CharString>
          <CharString index="149">
            -22 -11 callsubr
            40 -6 callsubr
            return
          </CharString>
          <CharString index="150">
            80 -80 215 -65 200 -80 80 hstemhm
            return
          </CharString>
          <CharString index="151">
            250 -220 245 -130 130 return
          </CharString>
        <CharString name=".notdef">
          -287 endchar
        </CharString>
        <CharString name="A">
          43 -69 callgsubr
          hstem
          -106 callsubr
          endchar
        </CharString>
        <CharString name="AE">
          288 0 90 100 90 40 90 200 90 hstem
          375 -56 callgsubr
          795 hmoveto
          15 90 rlineto
          -280 hlineto
          41 230 rlineto
          220 -84 callsubr
          -220 hlineto
          -31 callgsubr
          280 -84 callsubr
          -550 hlineto
          -418 -47 callgsubr
          113 190 rlineto
          205 hlineto
          -33 -190 rlineto
          77 610 rmoveto
          30 hlineto
          -58 -330 rlineto
          -165 hlineto
          endchar
        </CharString>
        <CharString name="Aacute">
          43 -69 callgsubr
          70 -6 callsubr
          hintmask 11100000
          -106 callsubr
          hintmask 00010000
          171 650 -101 callgsubr
        </CharString>
        <CharString name="Abreve">
          43 -69 callgsubr
          80 -17 callsubr
          150 -11 callgsubr
          hintmask 11100000
          -106 callsubr
          hintmask 00010110
          177 580 rmoveto
          hintmask 00001110
          -30 -17 -93 callsubr
          hintmask 00010110
          -25 callgsubr
        </CharString>
        <CharString name="Acircumflex">
          43 -69 callgsubr
          91 -64 callsubr
          hintmask 11100000
          -106 callsubr
          hintmask 00011000
          136 634 -98 callgsubr
        </CharString>
        <CharString name="Adieresis">
          43 -69 callgsubr
          80 140 hstemhm
          138 -32 callsubr
          hintmask 11100000
          -106 callsubr
          hintmask 00011100
          89 650 rmoveto
          -107 callsubr
        </CharString>
        <CharString name="Agrave">
          43 -69 callgsubr
          70 -6 callsubr
          hintmask 11100000
          -106 callsubr
          hintmask 00010000
          61 650 -83 callgsubr
        </CharString>
        <CharString name="Amacron">
          43 -69 callgsubr
          80 90 hstemhm
          hintmask 11100000
          -106 callsubr
          hintmask 00010000
          35 600 -79 callsubr
        </CharString>
        <CharString name="Aogonek">
          43 -37 callgsubr
          -69 callgsubr
          hstemhm
          405 8 callgsubr
          hintmask 00111000
          -106 callsubr
          hintmask 10000100
          270 -365 -44 callsubr
          hintmask 01000010
          -99 callsubr
          hintmask 10000100
          -39 callsubr
        </CharString>
        <CharString name="Aring">
          43 -69 callgsubr
          65 65 80 65 hstemhm
          200 75 70 75 hintmask 11100000
          -106 callsubr
          hintmask 00011110
          145 600 -97 callgsubr
        </CharString>
        <CharString name="Atilde">
          43 -69 callgsubr
          75 -17 callgsubr
          hintmask 11100000
          -106 callsubr
          hintmask 00001000
          280 635 -48 callsubr
        </CharString>
        <CharString name="B">
          -88 callgsubr
        </CharString>
        <CharString name="C">
          -22 18 callgsubr
          vstem
          -10 callsubr
          115 79 55 0 hvcurveto
          -30 -81 callgsubr
          -53 -45 -75 -90 -50 60 210 37 vhcurveto
          210 37 71 60 80 hhcurveto
          75 -94 callsubr
          -115 -165 -124 -105 -255 -45 vhcurveto
          endchar
        </CharString>
        <CharString name="Cacute">
          42 callsubr
          -12 callgsubr
          hintmask 11010000
          -10 callsubr
          115 79 55 0 hvcurveto
          -30 -81 callgsubr
          -53 -45 -75 -90 -50 60 210 37 vhcurveto
          210 37 71 60 80 hhcurveto
          75 -94 callsubr
          -115 -165 -124 -105 -255 -45 vhcurveto
          hintmask 00100000
          362 550 -101 callgsubr
        </CharString>
        <CharString name="Ccaron">
          -22 -11 callsubr
          77 -64 callsubr
          25 6 callsubr
          -10 callsubr
          115 79 55 0 hvcurveto
          -30 -81 callgsubr
          -53 -45 -75 -90 -50 60 210 37 vhcurveto
          210 37 71 60 80 hhcurveto
          75 -94 callsubr
          -115 -165 -124 -105 -255 -45 vhcurveto
          hintmask 00110000
          375 416 -99 callgsubr
        </CharString>
        <CharString name="Ccedilla">
          -22 -20 callgsubr
          -30 90 540 90 hstemhm
          -12 callgsubr
          70 170 -85 85 hintmask 00011100
          -10 callsubr
          115 79 55 0 hvcurveto
          -30 -81 callgsubr
          -53 -45 -75 -90 -50 60 210 37 vhcurveto
          210 37 71 60 80 hhcurveto
          75 -94 callsubr
          -115 -165 -124 -105 -255 -45 vhcurveto
          hintmask 10100010
          227 -330 -33 callsubr
          hintmask 11000001
          -96 callsubr
        </CharString>
        <CharString name="D">
          58 0 90 520 90 hstem
          60 -21 callgsubr
          -62 callsubr
          endchar
        </CharString>
        <CharString name="Dcaron">
          58 0 90 520 90 87 -64 callsubr
          60 140 200 19 callgsubr
          -62 callsubr
          hintmask 00110000
          196 676 -99 callgsubr
        </CharString>
        <CharString name="Dcroat">
          -82 callsubr
        </CharString>
        <CharString name="E">
          -27 -72 callgsubr
          hstem
          60 -56 callgsubr
          480 -102 callgsubr
          endchar
        </CharString>
        <CharString name="Eacute">
          -27 -72 callgsubr
          50 150 -24 callgsubr
          hintmask 11101000
          480 -102 callgsubr
          hintmask 00010000
          348 900 -101 callgsubr
        </CharString>
        <CharString name="Ecaron">
          -27 -72 callgsubr
          87 -64 callsubr
          60 140 hintmask 11100100
          480 -102 callgsubr
          hintmask 00011000
          411 766 -99 callgsubr
        </CharString>
        <CharString name="Ecircumflex">
          -27 -72 callgsubr
          81 -64 callsubr
          60 140 hintmask 11100100
          480 -102 callgsubr
          hintmask 00011000
          324 894 -98 callgsubr
        </CharString>
        <CharString name="Edieresis">
          -27 -72 callgsubr
          70 140 -24 callgsubr
          -58 -32 callsubr
          hintmask 11101000
          480 -102 callgsubr
          hintmask 00010110
          277 910 rmoveto
          -107 callsubr
        </CharString>
        <CharString name="Edotaccent">
          -37 -72 callgsubr
          60 -6 callsubr
          11 callgsubr
          47 150 hintmask 11101000
          470 -102 callgsubr
          hintmask 00010100
          387 910 -88 callsubr
        </CharString>
        <CharString name="Egrave">
          -27 -72 callgsubr
          50 150 -24 callgsubr
          hintmask 11101000
          480 -102 callgsubr
          hintmask 00010000
          258 900 -83 callgsubr
        </CharString>
        <CharString name="Emacron">
          -37 -72 callgsubr
          70 90 hstemhm
          11 callgsubr
          hintmask 11101000
          470 -102 callgsubr
          hintmask 00010000
          223 860 -79 callsubr
        </CharString>
        <CharString name="Eogonek">
          -27 -37 callgsubr
          -72 callgsubr
          -24 callgsubr
          -10 8 callgsubr
          hintmask 00111100
          480 -102 callgsubr
          hintmask 10000010
          239 -115 -44 callsubr
          hintmask 01000001
          -99 callsubr
          hintmask 10000010
          -39 callsubr
        </CharString>
        <CharString name="Eth">
          -82 callsubr
        </CharString>
        <CharString name="Euro">
          8 -10 90 170 75 50 75 170 90 hstem
          29 250 rmoveto
          75 hlineto
          -185 -8 87 -75 150 hhcurveto
          115 79 55 0 hvcurveto
          -30 -81 callgsubr
          -53 -45 -75 -75 -48 40 130 8 vhcurveto
          180 hlineto
          28 75 rlineto
          -200 hlineto
          9 50 rlineto
          200 hlineto
          28 75 rlineto
          -210 hlineto
          130 38 62 40 65 hhcurveto
          75 -94 callsubr
          -115 -140 -114 -75 -185 -57 vhcurveto
          -55 hlineto
          -28 -75 rlineto
          65 hlineto
          -9 -50 rlineto
          -55 hlineto
          endchar
        </CharString>
        <CharString name="F">
          -32 21 -21 310 90 210 40 callgsubr
          vstem
          200 hmoveto
          54 310 rlineto
          220 -84 callsubr
          -220 hlineto
          37 210 -43 callsubr
          endchar
        </CharString>
        <CharString name="G">
          33 -10 90 220 90 230 90 hstemhm
          -12 callgsubr
          95 245 10 callgsubr
          hintmask 11111000
          -63 callgsubr
          hintmask 11110100
          -80 callsubr
          endchar
        </CharString>
        <CharString name="Gbreve">
          33 -10 90 220 90 230 90 40 -17 callsubr
          -12 callgsubr
          -5 110 -10 245 10 callgsubr
          -135 110 hintmask 1110010100000000
          -63 callgsubr
          hintmask 1110010010000000
          -80 callsubr
          hintmask 0001001001000000
          345 470 rmoveto
          hintmask 0000101001000000
          -30 -17 -93 callsubr
          hintmask 0001001001000000
          -25 callgsubr
        </CharString>
        <CharString name="Gcommaaccent">
          33 -269 -31 callsubr
          60 90 220 90 230 90 hstemhm
          -12 callgsubr
          69 130 -104 245 10 callgsubr
          hintmask 0011110100000000
          -63 callgsubr
          hintmask 0011110010000000
          -80 callsubr
          hintmask 1100001000000000
          135 -465 -105 callsubr
        </CharString>
        <CharString name="H">
          103 21 -21 310 90 300 40 callsubr
          533 10 callsubr
          -53 -300 rlineto
          -210 hlineto
          53 300 rlineto
          -140 -92 callgsubr
          54 310 rlineto
          210 hlineto
          -54 -310 -46 callgsubr
          endchar
        </CharString>
        <CharString name="I">
          -247 21 -21 700 -12 callsubr
          vstem
          60 -85 callgsubr
          -91 callsubr
          endchar
        </CharString>
        <CharString name="Iacute">
          -270 18 callsubr
          11 callgsubr
          hintmask 11010000
          25 callgsubr
          hintmask 00100000
          97 200 -101 callgsubr
        </CharString>
        <CharString name="Icircumflex">
          -267 -75 callgsubr
          101 -64 callsubr
          50 6 callsubr
          25 callgsubr
          hintmask 00110000
          54 194 -98 callgsubr
        </CharString>
        <CharString name="Idieresis">
          -247 -75 callgsubr
          90 140 hstemhm
          -5 140 -75 140 -10 6 callsubr
          60 -85 callgsubr
          -91 callsubr
          hintmask 00110100
          7 210 rmoveto
          -107 callsubr
        </CharString>
        <CharString name="Idotaccent">
          -257 -75 callgsubr
          80 -6 callsubr
          0 callsubr
          -110 150 hintmask 11010000
          55 -85 callgsubr
          -91 callsubr
          hintmask 00101000
          107 210 -88 callsubr
        </CharString>
        <CharString name="Igrave">
          -269 18 callsubr
          48 140 hintmask 11010000
          48 -85 callgsubr
          -91 callsubr
          hintmask 00100000
          -23 200 -83 callgsubr
        </CharString>
        <CharString name="Imacron">
          -257 -75 callgsubr
          80 90 hstemhm
          0 callsubr
          hintmask 11010000
          55 -85 callgsubr
          -91 callsubr
          hintmask 00100000
          -49 150 -79 callsubr
        </CharString>
        <CharString name="Iogonek">
          -242 -37 callgsubr
          -75 callgsubr
          hstemhm
          45 8 callgsubr
          -170 140 hintmask 00110010
          65 -85 callgsubr
          -91 callsubr
          hintmask 10001000
          -34 -815 -44 callsubr
          hintmask 01000100
          -99 callsubr
          hintmask 10001000
          -39 callsubr
        </CharString>
        <CharString name="Itilde">
          -252 -75 callgsubr
          105 -17 callgsubr
          60 140 hintmask 11000100
          60 -85 callgsubr
          -91 callsubr
          hintmask 00010000
          202 215 -95 callsubr
        </CharString>
        <CharString name="J">
          -107 -38 callgsubr
          hstem
          15 callgsubr
          -76 callsubr
          endchar
        </CharString>
        <CharString name="Jcircumflex">
          -107 -38 callgsubr
          81 -64 callsubr
          210 6 callsubr
          -76 callsubr
          hintmask 00110000
          249 794 -98 callgsubr
        </CharString>
        <CharString name="K">
          28 21 -21 700 -12 callsubr
          vstem
          -45 callsubr
          endchar
        </CharString>
        <CharString name="Kcommaaccent">
          28 23 callgsubr
          28 130 hintmask 00111000
          -45 callsubr
          hintmask 11000100
          -340 -65 -105 callsubr
        </CharString>
        <CharString name="L">
          -52 0 90 610 -12 callsubr
          vstem
          183 700 -61 callsubr
          endchar
        </CharString>
        <CharString name="Lacute">
          -52 0 90 610 -20 70 150 -24 callgsubr
          hintmask 11010000
          183 700 -61 callsubr
          hintmask 00100000
          -25 200 -101 callgsubr
        </CharString>
        <CharString name="Lcaron">
          -52 0 90 391 -31 callsubr
          -24 callgsubr
          55 130 hintmask 01101000
          366 635 rmoveto
          -32 -5 22 -28 43 hhcurveto
          -8 -45 -61 11 callsubr
          24 -42 callgsubr
          hintmask 10110000
          -183 65 -61 callsubr
          endchar
        </CharString>
        <CharString name="Lcommaaccent">
          -52 -269 -31 callsubr
          70 90 610 -20 -24 callgsubr
          4 130 hintmask 00111000
          183 700 -61 callsubr
          hintmask 11000100
          -132 -815 -105 callsubr
        </CharString>
        <CharString name="Lslash">
          -47 0 90 610 -20 hstemhm
          10 195 10 callgsubr
          -140 230 hintmask 11100000
          47 210 rmoveto
          hintmask 11010000
          62 40 -44 -250 rlineto
          410 hlineto
          15 90 rlineto
          -270 hlineto
          47 263 rlineto
          hintmask 11001000
          102 67 22 130 rlineto
          hintmask 11100000
          -101 -67 38 217 rlineto
          hintmask 11010000
          -91 callsubr
          -56 -320 rlineto
          hintmask 11100000
          -63 -40 rlineto
          endchar
        </CharString>
        <CharString name="M">
          -86 callsubr
        </CharString>
        <CharString name="N">
          103 21 -21 700 40 callsubr
          333 10 callsubr
          -150 -92 callgsubr
          68 390 rlineto
          6 30 1 15 callsubr
          4 hlineto
          0 6 -35 8 -30 vhcurveto
          107 -390 rlineto
          150 6 callgsubr
          -91 callsubr
          -69 -390 rlineto
          -5 -30 -1 -66 callgsubr
          -6 35 -9 30 vhcurveto
          endchar
        </CharString>
        <CharString name="Nacute">
          103 -75 callgsubr
          60 150 -24 callgsubr
          -24 callsubr
          hintmask 11011000
          333 10 callsubr
          -150 -92 callgsubr
          68 390 rlineto
          6 30 1 15 callsubr
          4 hlineto
          0 6 -35 8 -30 vhcurveto
          107 -390 rlineto
          150 6 callgsubr
          -91 callsubr
          -69 -390 rlineto
          -5 -30 -1 -66 callgsubr
          -6 35 -9 30 vhcurveto
          hintmask 00100000
          4 580 -101 callgsubr
        </CharString>
        <CharString name="Ncaron">
          103 -75 callgsubr
          97 -64 callsubr
          60 140 210 19 callgsubr
          333 10 callsubr
          -150 -92 callgsubr
          68 390 rlineto
          6 30 1 15 callsubr
          4 hlineto
          0 6 -35 8 -30 vhcurveto
          107 -390 rlineto
          150 6 callgsubr
          -91 callsubr
          -69 -390 rlineto
          -5 -30 -1 -66 callgsubr
          -6 35 -9 30 vhcurveto
          hintmask 00110000
          48 446 -99 callgsubr
        </CharString>
        <CharString name="Ncommaaccent">
          103 23 callgsubr
          41 130 39 140 hintmask 00111010
          333 10 callsubr
          -150 -92 callgsubr
          68 390 rlineto
          6 30 1 15 callsubr
          4 hlineto
          0 6 -35 8 -30 vhcurveto
          107 -390 rlineto
          150 6 callgsubr
          -91 callsubr
          -69 -390 rlineto
          -5 -30 -1 -66 callgsubr
          -6 35 -9 30 vhcurveto
          hintmask 11000100
          -211 -375 -105 callsubr
        </CharString>
        <CharString name="Ntilde">
          83 -75 callgsubr
          75 90 -45 45 -45 90 -3 callgsubr
          hintmask 11000110
          323 10 callsubr
          -150 -92 callgsubr
          68 390 rlineto
          6 30 1 15 callsubr
          4 hlineto
          0 6 -35 8 -30 vhcurveto
          107 -390 rlineto
          150 6 callgsubr
          -91 callsubr
          -69 -390 rlineto
          -5 -30 -1 -66 callgsubr
          -6 35 -9 30 vhcurveto
          hintmask 00010000
          115 575 -95 callsubr
        </CharString>
        <CharString name="O">
          73 18 callgsubr
          250 -56 callgsubr
          -105 callgsubr
          endchar
        </CharString>
        <CharString name="OE">
          278 -72 callgsubr
          hstem
          -12 callgsubr
          15 callgsubr
          482 610 rmoveto
          -92 -520 rlineto
          -30 hlineto
          -120 -49 60 200 35 hvcurveto
          200 35 71 60 120 hhcurveto
          16 90 rmoveto
          -210 -129 -110 -240 -43 hvcurveto
          -240 -42 91 -110 210 hhcurveto
          440 hlineto
          15 90 rlineto
          -270 hlineto
          41 230 rlineto
          210 -84 callsubr
          -210 hlineto
          -31 callgsubr
          270 -84 callsubr
          endchar
        </CharString>
        <CharString name="Oacute">
          -37 callsubr
          40 150 -18 callsubr
          hintmask 11011000
          -105 callgsubr
          hintmask 00100000
          -186 550 -101 callgsubr
        </CharString>
        <CharString name="Ocircumflex">
          -37 callsubr
          71 -21 134 -20 -18 callsubr
          hintmask 11001100
          -105 callgsubr
          hintmask 00110000
          -219 544 -98 callgsubr
        </CharString>
        <CharString name="Odieresis">
          -37 callsubr
          -45 callgsubr
          hstemhm
          -12 callgsubr
          -10 -32 callsubr
          -75 140 hintmask 11010010
          -105 callgsubr
          hintmask 00101100
          -266 560 rmoveto
          -107 callsubr
        </CharString>
        <CharString name="Ograve">
          -37 callsubr
          40 150 -18 callsubr
          hintmask 11011000
          -105 callgsubr
          hintmask 00100000
          -286 550 -83 callgsubr
        </CharString>
        <CharString name="Ohungarumlaut">
          -37 callsubr
          40 150 -18 callsubr
          hintmask 11011000
          -105 callgsubr
          hintmask 00100000
          -236 550 rmoveto
          -42 callsubr
          45 hmoveto
          -42 callsubr
          endchar
        </CharString>
        <CharString name="Omacron">
          -37 callsubr
          60 90 -18 callsubr
          hintmask 11011000
          -105 callgsubr
          hintmask 00100000
          -320 510 -79 callsubr
        </CharString>
        <CharString name="Oslash">
          73 -8 callgsubr
          620 90 -10 -20 -18 callsubr
          hintmask 01101100
          25 hmoveto
          115 hlineto
          18 24 rlineto
          hintmask 10011100
          -23 35 43 -11 52 hhcurveto
          160 123 105 255 45 hvcurveto
          20 112 -6 84 -26 58 74 96 rcurveline
          -115 hlineto
          -19 -24 rlineto
          hintmask 01101100
          23 -34 -44 11 -51 hhcurveto
          -160 -124 -105 -255 -45 hvcurveto
          -20 -113 6 -83 26 -58 rrcurveto
          128 254 rmoveto
          210 37 71 60 65 hhcurveto
          28 25 -12 -30 16 hvcurveto
          -254 -332 1 29 4 35 7 40 rlinecurve
          250 hmoveto
          hintmask 10101100
          -210 -37 -70 -60 -65 hhcurveto
          -29 -25 11 31 -17 hvcurveto
          255 331 -1 -29 -4 -35 -7 -39 rlinecurve
          endchar
        </CharString>
        <CharString name="Otilde">
          -37 callsubr
          55 90 -45 45 -45 90 -18 callsubr
          hintmask 11000110
          -105 callgsubr
          hintmask 00010000
          -75 545 -95 callsubr
        </CharString>
        <CharString name="P">
          38 21 -21 230 90 290 40 callgsubr
          190 -56 callgsubr
          256 320 rmoveto
          51 290 rlineto
          60 hlineto
          90 33 -40 -105 -19 hvcurveto
          -105 -18 -47 -40 -90 hhcurveto
          -16 -90 rmoveto
          8 callsubr
          155 27 hvcurveto
          155 28 -26 callgsubr
          -200 -92 callgsubr
          40 230 rlineto
          endchar
        </CharString>
        <CharString name="Q">
          73 -165 90 -90 245 540 90 hstemhm
          25 140 55 -32 callsubr
          cntrmask 00011100
          hintmask 10111100
          616 -6 callgsubr
          255 45 -86 105 -160 hhcurveto
          -160 -124 -105 -255 -45 hvcurveto
          -38 -215 57 -105 115 -30 rrcurveto
          -95 -17 58 -70 109 hhcurveto
          50 34 20 0 hvcurveto
          -12 -81 callgsubr
          -11 -10 -25 -25 -20 25 50 9 vhcurveto
          125 30 93 105 38 215 rrcurveto
          -140 hmoveto
          hintmask 01111100
          -210 -37 -70 -60 -65 hhcurveto
          -65 -50 60 210 37 hvcurveto
          210 37 71 60 65 hhcurveto
          65 49 -60 -210 -37 hvcurveto
          endchar
        </CharString>
        <CharString name="R">
          43 21 -21 610 90 hstem
          60 14 callgsubr
          299 -96 callgsubr
          endchar
        </CharString>
        <CharString name="Racute">
          43 21 -21 610 90 50 150 -24 callgsubr
          180 140 hintmask 11011000
          299 -96 callgsubr
          hintmask 00100000
          104 560 -101 callgsubr
        </CharString>
        <CharString name="Rcaron">
          43 35 callsubr
          60 140 180 19 callgsubr
          299 -96 callgsubr
          hintmask 00110000
          137 426 -99 callgsubr
        </CharString>
        <CharString name="Rcommaaccent">
          33 -219 -31 callsubr
          41 -21 610 90 hstemhm
          11 callgsubr
          18 130 32 140 hintmask 00111010
          289 -96 callgsubr
          hintmask 11000100
          -104 -405 -105 callsubr
        </CharString>
        <CharString name="S">
          -22 -10 90 540 44 callgsubr
          -104 callgsubr
          endchar
        </CharString>
        <CharString name="Sacute">
          42 callsubr
          15 140 180 140 hintmask 11011000
          -104 callgsubr
          hintmask 00100000
          18 190 -101 callgsubr
        </CharString>
        <CharString name="Scaron">
          -22 -11 callsubr
          77 -18 callgsubr
          180 19 callgsubr
          -104 callgsubr
          hintmask 00110000
          51 56 -99 callgsubr
        </CharString>
        <CharString name="Scedilla">
          -22 -20 callgsubr
          -30 90 540 38 callgsubr
          35 170 -85 85 -25 140 hintmask 0001110010000000
          -104 callgsubr
          hintmask 1010001000000000
          -107 -690 -33 callsubr
          hintmask 1100000100000000
          -96 callsubr
        </CharString>
        <CharString name="Scommaaccent">
          -22 -264 -31 callsubr
          55 90 540 38 callgsubr
          33 130 17 140 hintmask 00111010
          -104 callgsubr
          hintmask 11000100
          -200 -820 -105 callsubr
        </CharString>
        <CharString name="T">
          -47 21 -21 610 90 hstem
          -2 callgsubr
          -74 callsubr
          endchar
        </CharString>
        <CharString name="Tcaron">
          -47 35 callsubr
          160 6 callsubr
          -74 callsubr
          hintmask 00110000
          254 766 -99 callgsubr
        </CharString>
        <CharString name="Tcommaaccent">
          -47 -269 -31 callsubr
          91 -21 610 90 hstemhm
          157 130 -127 140 hintmask 00110100
          -74 callsubr
          hintmask 11001000
          -16 -115 -105 callsubr
        </CharString>
        <CharString name="Thorn">
          88 1 -21 70 90 420 90 70 -12 callsubr
          240 -56 callgsubr
          314 650 rmoveto
          12 70 rlineto
          -91 callsubr
          -130 -740 rlineto
          140 hlineto
          12 70 rlineto
          70 hlineto
          195 136 115 185 32 hvcurveto
          185 33 -95 115 -195 hhcurveto
          -16 -90 rmoveto
          100 58 -70 -140 -25 hvcurveto
          -140 -24 -83 -70 -100 hhcurveto
          -70 hlineto
          74 420 rlineto
          endchar
        </CharString>
        <CharString name="U">
          83 -38 callgsubr
          hstem
          11 callgsubr
          15 callgsubr
          -104 callsubr
          endchar
        </CharString>
        <CharString name="Uacute">
          83 -38 callgsubr
          50 150 -3 callgsubr
          hintmask 11011000
          -104 callsubr
          hintmask 00100000
          -82 180 -101 callgsubr
        </CharString>
        <CharString name="Ucircumflex">
          83 -38 callgsubr
          101 -21 134 -20 -3 callgsubr
          hintmask 11001100
          -104 callsubr
          hintmask 00110000
          -121 194 -98 callgsubr
        </CharString>
        <CharString name="Udieresis">
          83 -38 callgsubr
          90 140 hstemhm
          11 callgsubr
          -30 -32 callsubr
          -95 140 hintmask 11010010
          -104 callsubr
          hintmask 00101100
          -168 210 rmoveto
          -107 callsubr
        </CharString>
        <CharString name="Ugrave">
          83 -38 callgsubr
          50 150 -3 callgsubr
          hintmask 11011000
          -104 callsubr
          hintmask 00100000
          -192 180 -83 callgsubr
        </CharString>
        <CharString name="Uhungarumlaut">
          83 -38 callgsubr
          60 150 -3 callgsubr
          hintmask 11011000
          -104 callsubr
          hintmask 00100000
          -150 190 rmoveto
          -42 callsubr
          45 hmoveto
          -42 callsubr
          endchar
        </CharString>
        <CharString name="Umacron">
          83 -38 callgsubr
          80 90 -3 callgsubr
          hintmask 11011000
          -104 callsubr
          hintmask 00100000
          -224 150 -79 callsubr
        </CharString>
        <CharString name="Uogonek">
          83 -37 callgsubr
          -38 callgsubr
          hstemhm
          11 callgsubr
          10 8 callgsubr
          10 140 hintmask 00111001
          -104 callsubr
          hintmask 10000100
          -214 -815 -44 callsubr
          hintmask 01000010
          -99 callsubr
          hintmask 10000100
          -39 callsubr
        </CharString>
        <CharString name="Uring">
          83 -38 callgsubr
          55 65 80 65 hstemhm
          11 callgsubr
          28 75 70 75 -38 140 hintmask 11001001
          -104 callsubr
          hintmask 00110110
          -116 140 -97 callgsubr
        </CharString>
        <CharString name="V">
          33 -75 callgsubr
          hstem
          253 10 callsubr
          -91 callsubr
          77 -57 callgsubr
          160 hlineto
          323 -55 callsubr
          -91 callsubr
          -206 -460 rlineto
          -15 -32 -11 -43 -83 callsubr
          2 44 -2 31 vhcurveto
          endchar
        </CharString>
        <CharString name="W">
          343 -66 callsubr
          220 -20 hstem
          622 10 callsubr
          -148 hlineto
          -179 12 callsubr
          -22 440 rlineto
          -91 callsubr
          47 -700 -2 callsubr
          181 435 rlineto
          11 25 9 40 0 vvcurveto
          4 hlineto
          0 -5 -40 1 -25 vhcurveto
          29 -435 -2 callsubr
          293 -55 callsubr
          -91 callsubr
          -178 12 callsubr
          endchar
        </CharString>
        <CharString name="X">
          -76 callgsubr
        </CharString>
        <CharString name="Y">
          13 -75 callgsubr
          hstem
          190 -56 callgsubr
          -80 callgsubr
          endchar
        </CharString>
        <CharString name="Yacute">
          13 -75 callgsubr
          50 -6 callsubr
          190 140 hintmask 11010000
          -80 callgsubr
          hintmask 00100000
          -117 180 -101 callgsubr
        </CharString>
        <CharString name="Ydieresis">
          13 -75 callgsubr
          90 140 hstemhm
          125 140 -75 140 -10 6 callsubr
          -80 callgsubr
          hintmask 00110100
          -203 210 rmoveto
          -107 callsubr
        </CharString>
        <CharString name="Z">
          33 callgsubr
          hstem
          -78 callsubr
          endchar
        </CharString>
        <CharString name="Zacute">
          33 callgsubr
          50 -6 callsubr
          hintmask 11000000
          -78 callsubr
          hintmask 00100000
          368 900 -101 callgsubr
        </CharString>
        <CharString name="Zcaron">
          33 callgsubr
          87 -64 callsubr
          hintmask 11000000
          -78 callsubr
          hintmask 00110000
          411 766 -99 callgsubr
        </CharString>
        <CharString name="Zdotaccent">
          33 callgsubr
          60 -6 callsubr
          197 150 hintmask 11000000
          -78 callsubr
          hintmask 00110000
          387 910 -88 callsubr
        </CharString>
        <CharString name="a">
          -73 callsubr
          hstemhm
          15 140 7 callsubr
          hintmask 10111100
          -100 callgsubr
          hintmask 01111100
          -103 callsubr
          hintmask 10111100
          -95 callgsubr
          endchar
        </CharString>
        <CharString name="aacute">
          -73 callsubr
          40 -9 callsubr
          7 callsubr
          hintmask 10110110
          -100 callgsubr
          hintmask 01110110
          -103 callsubr
          hintmask 10110110
          -95 callgsubr
          hintmask 00001000
          3 485 -101 callgsubr
        </CharString>
        <CharString name="abreve">
          -73 callsubr
          40 -17 callsubr
          -51 callsubr
          -72 -11 callgsubr
          -93 140 hintmask 1011001001000000
          -100 callgsubr
          hintmask 0111001001000000
          -103 callsubr
          hintmask 1011001001000000
          -95 callgsubr
          hintmask 0000100110000000
          7 405 rmoveto
          hintmask 0000010110000000
          -30 -17 -93 callsubr
          hintmask 0000100110000000
          -25 callgsubr
        </CharString>
        <CharString name="acircumflex">
          -73 callsubr
          71 -18 callgsubr
          7 callsubr
          hintmask 10110011
          -100 callgsubr
          hintmask 01110011
          -103 callsubr
          hintmask 10110011
          -95 callgsubr
          hintmask 00001100
          -30 479 -98 callgsubr
        </CharString>
        <CharString name="acute">
          -357 550 150 hstem
          153 700 -101 callgsubr
        </CharString>
        <CharString name="adieresis">
          -73 callsubr
          -45 callgsubr
          hstemhm
          15 140 -80 -32 callsubr
          -100 140 hintmask 1011010010000000
          -100 callgsubr
          hintmask 0111010010000000
          -103 callsubr
          hintmask 1011010010000000
          -95 callgsubr
          hintmask 0000101100000000
          -77 495 rmoveto
          -107 callsubr
        </CharString>
        <CharString name="ae">
          258 -10 90 125 100 115 90 hstem
          -51 callsubr
          7 callsubr
          -2 callgsubr
          558 -10 rmoveto
          100 79 50 -89 callgsubr
          -47 -40 -65 -80 -33 40 85 15 vhcurveto
          270 hlineto
          35 30 4 25 21 callsubr
          29 -41 callsubr
          -70 -50 -30 -30 -35 hvcurveto
          30 -25 -40 30 -85 hhcurveto
          -100 -78 -50 0 hvcurveto
          31 -80 rlineto
          10 hlineto
          0 47 40 65 65 24 -30 -70 -12 vhcurveto
          -3 -15 rlineto
          -70 hlineto
          -160 -76 -65 -95 -17 hvcurveto
          -90 -16 54 -65 120 hhcurveto
          90 62 40 32 35 hvcurveto
          -32 25 53 -40 95 hhcurveto
          -223 155 rmoveto
          -95 callgsubr
          257 205 rmoveto
          40 33 -40 -85 -15 hvcurveto
          -19 callgsubr
          85 15 47 40 40 hhcurveto
          endchar
        </CharString>
        <CharString name="afii10017">
          43 -69 callgsubr
          hstem
          -106 callsubr
          endchar
        </CharString>
        <CharString name="afii10018">
          43 0 90 250 90 180 40 callgsubr
          195 -56 callgsubr
          275 430 rmoveto
          32 180 -43 callsubr
          205 hlineto
          8 callsubr
          135 23 hvcurveto
          125 22 -64 90 3 callgsubr
          -65 hlineto
          -7 callsubr
          endchar
        </CharString>
        <CharString name="afii10019">
          -88 callgsubr
        </CharString>
        <CharString name="afii10020">
          -42 21 -21 610 40 callgsubr
          vstem
          200 hmoveto
          107 610 -43 callsubr
          endchar
        </CharString>
        <CharString name="afii10021">
          98 -150 240 -90 90 520 90 hstemhm
          85 145 -133 133 7 callsubr
          hintmask 10101100
          233 10 callsubr
          hintmask 10110100
          -106 -460 rlineto
          -26 -110 -56 -40 0 vvcurveto
          -50 hlineto
          -41 -240 rlineto
          109 hlineto
          hintmask 01101100
          47 150 rlineto
          355 hlineto
          hintmask 10101100
          -35 callgsubr
          -468 -610 rmoveto
          0 56 40 26 110 vhcurveto
          85 370 rlineto
          145 hlineto
          -92 -520 rlineto
          endchar
        </CharString>
        <CharString name="afii10022">
          -27 -72 callgsubr
          hstem
          60 -56 callgsubr
          480 -102 callgsubr
          endchar
        </CharString>
        <CharString name="afii10023">
          -27 -72 callgsubr
          65 140 -24 callgsubr
          -95 -32 callsubr
          hintmask 11111010
          480 -102 callgsubr
          274 905 rmoveto
          hintmask 11110110
          -14 callsubr
          195 hmoveto
          -14 callsubr
          endchar
        </CharString>
        <CharString name="afii10024">
          343 31 callsubr
          hstemhm
          355 140 hintmask 10110100
          406 405 rmoveto
          -50 -16 20 50 -2 hvcurveto
          -6 135 rlineto
          55 -2 -35 45 -70 hhcurveto
          -50 -38 -15 0 hvcurveto
          -4 -80 rlineto
          5 hlineto
          0 11 5 10 20 8 -10 -25 1 vhcurveto
          4 -115 rlineto
          4 -91 83 -14 0 vvcurveto
          0 -98 -15 -37 -95 vhcurveto
          -54 -140 rlineto
          -25 -10 -11 26 callsubr
          0 28 -15 55 70 51 45 55 21 vhcurveto
          64 160 rlineto
          45 18 23 20 45 hhcurveto
          35 hlineto
          hintmask 01110100
          -55 -315 rlineto
          140 hlineto
          55 315 rlineto
          35 -4 callsubr
          hintmask 10110100
          -64 callgsubr
          -92 15 0 vvcurveto
          0 87 -77 callsubr
          -20 hlineto
          hintmask 10101100
          52 295 rlineto
          -91 callsubr
          -52 -295 rlineto
          endchar
        </CharString>
        <CharString name="afii10025">
          -22 -10 90 240 90 210 90 hstemhm
          310 140 -125 140 hintmask 11110000
          325 710 rmoveto
          -125 -34 callsubr
          85 85 28 -40 -65 -12 vhcurveto
          -65 -11 -47 -40 -75 hhcurveto
          -95 -59 callsubr
          95 hlineto
          hintmask 11101000
          90 33 -40 -80 -14 hvcurveto
          -80 -14 -47 -40 -100 hhcurveto
          -95 -34 callgsubr
          135 8 callsubr
          120 21 vhcurveto
          28 160 -146 20 0 vvcurveto
          hintmask 11110000
          0 138 20 24 135 vhcurveto
          105 19 -66 80 -170 hhcurveto
          endchar
        </CharString>
        <CharString name="afii10026">
          103 21 -21 700 40 callsubr
          410 hmoveto
          36 callgsubr
          -260 -395 rlineto
          -20 -30 -17 -36 -83 callsubr
          11 36 5 30 vhcurveto
          70 395 -28 callgsubr
          135 hlineto
          259 395 rlineto
          20 30 18 36 0 vvcurveto
          4 hlineto
          0 -12 -36 -5 -30 vhcurveto
          endchar
        </CharString>
        <CharString name="afii10027">
          103 -75 callgsubr
          70 -17 callsubr
          60 140 -55 -11 callgsubr
          -55 140 hintmask 11101010
          449 820 rmoveto
          hintmask 11010110
          -30 -16 20 50 8 hvcurveto
          -110 hlineto
          -90 -15 41 -50 110 hhcurveto
          110 59 50 90 15 hvcurveto
          -110 hlineto
          hintmask 11101001
          -50 -8 -24 -20 -30 hhcurveto
          -39 -820 rmoveto
          36 callgsubr
          -260 -395 rlineto
          -20 -30 -17 -36 -83 callsubr
          11 36 5 30 vhcurveto
          70 395 -28 callgsubr
          135 hlineto
          259 395 rlineto
          20 30 18 36 0 vvcurveto
          4 hlineto
          0 -12 -36 -5 -30 vhcurveto
          endchar
        </CharString>
        <CharString name="afii10028">
          58 31 callsubr
          -24 callgsubr
          hintmask 10110100
          414 365 rmoveto
          0 87 -77 callsubr
          -30 hlineto
          hintmask 01101100
          52 295 rlineto
          -140 -92 callgsubr
          55 315 rlineto
          45 -4 callsubr
          hintmask 10110100
          -64 callgsubr
          -92 15 0 vvcurveto
          endchar
        </CharString>
        <CharString name="afii10029">
          78 -8 callgsubr
          610 26 callgsubr
          hintmask 10101100
          39 80 rmoveto
          -10 -15 5 -81 callsubr
          -24 -36 callsubr
          33 -15 35 vhcurveto
          hintmask 01110100
          3 callsubr
          140 hlineto
          123 700 rlineto
          -425 hlineto
          -125 -540 rlineto
          hintmask 10101100
          -60 -14 -20 -20 -25 hhcurveto
          endchar
        </CharString>
        <CharString name="afii10030">
          -86 callsubr
        </CharString>
        <CharString name="afii10031">
          103 21 -21 310 90 300 40 callsubr
          533 10 callsubr
          -53 -300 rlineto
          -210 hlineto
          53 300 rlineto
          -140 -92 callgsubr
          54 310 rlineto
          210 hlineto
          -54 -310 -46 callgsubr
          endchar
        </CharString>
        <CharString name="afii10032">
          73 18 callgsubr
          250 -56 callgsubr
          616 -6 callgsubr
          255 45 -86 105 -160 hhcurveto
          -160 -124 -105 -255 -45 hvcurveto
          -59 callgsubr
          160 hhcurveto
          160 123 105 255 45 hvcurveto
          -140 hmoveto
          -210 -37 -70 -60 -65 hhcurveto
          -65 -50 60 210 37 hvcurveto
          210 37 71 60 65 hhcurveto
          65 49 -60 -210 -37 hvcurveto
          endchar
        </CharString>
        <CharString name="afii10033">
          103 21 -21 610 40 callgsubr
          15 callgsubr
          183 10 callsubr
          -90 callsubr
          107 610 rlineto
          210 hlineto
          -107 -610 -46 callgsubr
          endchar
        </CharString>
        <CharString name="afii10034">
          33 21 -21 230 90 290 40 callgsubr
          190 -56 callgsubr
          256 320 rmoveto
          51 290 rlineto
          60 hlineto
          90 33 -40 -105 -19 hvcurveto
          -105 -18 -47 -40 -90 hhcurveto
          -16 -90 rmoveto
          8 callsubr
          155 27 hvcurveto
          155 28 -26 callgsubr
          -200 -92 callgsubr
          40 230 rlineto
          endchar
        </CharString>
        <CharString name="afii10035">
          -22 18 callgsubr
          vstem
          -10 callsubr
          115 79 55 0 hvcurveto
          -30 -81 callgsubr
          -53 -45 -75 -90 -50 60 210 37 vhcurveto
          210 37 71 60 80 hhcurveto
          75 -94 callsubr
          -115 -165 -124 -105 -255 -45 vhcurveto
          endchar
        </CharString>
        <CharString name="afii10036">
          -47 21 -21 610 90 hstem
          -2 callgsubr
          -74 callsubr
          endchar
        </CharString>
        <CharString name="afii10037">
          18 -15 90 625 -20 hstem
          359 365 -71 callsubr
        </CharString>
        <CharString name="afii10038">
          233 -9 -21 760 -20 hstem
          10 45 callgsubr
          cntrmask 00111000
          540 570 rmoveto
          88 -10 50 -60 -27 -150 -26 -150 -71 -60 -92 -10 rrcurveto
          -140 hmoveto
          -88 10 -49 60 26 150 27 150 70 60 92 10 rrcurveto
          16 90 rmoveto
          -182 -10 -129 -110 -34 -190 -33 -190 90 -110 179 -10 -13 -70 rcurveline
          140 hlineto
          13 70 181 10 130 110 33 190 rlinecurve
          34 190 -91 110 -178 10 12 70 rcurveline
          -91 callsubr
          endchar
        </CharString>
        <CharString name="afii10039">
          -76 callgsubr
        </CharString>
        <CharString name="afii10040">
          113 -150 240 -90 90 610 -20 -24 callgsubr
          200 140 hintmask 01111000
          480 hmoveto
          hintmask 10111000
          -35 callgsubr
          -91 callsubr
          -108 -610 rlineto
          -200 hlineto
          108 610 rlineto
          -91 callsubr
          hintmask 01111000
          -91 callgsubr
          endchar
        </CharString>
        <CharString name="afii10041">
          73 21 -21 240 90 370 -20 hstem
          30 140 15 callgsubr
          440 345 rmoveto
          0 -42 -15 -55 -75 -33 40 75 13 vhcurveto
          45 255 rlineto
          -91 callsubr
          -45 -255 rlineto
          -125 -22 66 -80 150 hhcurveto
          70 52 15 0 hvcurveto
          -44 -255 -46 callgsubr
          -91 callsubr
          endchar
        </CharString>
        <CharString name="afii10042">
          393 0 90 610 -12 callsubr
          180 140 180 140 cntrmask 00111000
          963 10 callsubr
          -39 callgsubr
          -123 -700 rlineto
          780 hlineto
          endchar
        </CharString>
        <CharString name="afii10043">
          413 -150 240 -90 90 610 -20 -24 callgsubr
          180 140 180 140 cntrmask 00011100
          hintmask 01111100
          780 hmoveto
          hintmask 10111100
          -35 callgsubr
          -39 callgsubr
          hintmask 01111100
          -91 callgsubr
          endchar
        </CharString>
        <CharString name="afii10044">
          93 0 90 270 90 16 callgsubr
          hstem
          115 140 195 -56 callgsubr
          334 450 rmoveto
          -7 callsubr
          -270 -59 callsubr
          130 hlineto
          -107 -610 rlineto
          210 hlineto
          9 hlineto
          11 11 1 1 11 hvcurveto
          158 12 81 78 23 133 rrcurveto
          -46 callsubr
          -16 -90 -13 callsubr
          -65 hlineto
          19 callsubr
          endchar
        </CharString>
        <CharString name="afii10045">
          298 0 90 270 90 250 -12 callsubr
          185 140 80 -56 callgsubr
          605 -85 callgsubr
          -91 callsubr
          -410 -340 -13 callsubr
          -55 hlineto
          19 callsubr
          16 90 rmoveto
          44 250 -28 callgsubr
          195 -35 callsubr
          endchar
        </CharString>
        <CharString name="afii10046">
          38 0 90 270 90 250 -12 callsubr
          195 -56 callgsubr
          328 360 -13 callsubr
          -65 hlineto
          19 callsubr
          16 90 rmoveto
          44 250 -28 callgsubr
          205 -35 callsubr
          endchar
        </CharString>
        <CharString name="afii10047">
          -22 -10 90 230 90 220 90 hstem
          320 -56 callgsubr
          149 310 rmoveto
          225 hlineto
          -180 -42 -63 -50 -85 hhcurveto
          -75 -34 callgsubr
          115 175 123 105 255 45 vhcurveto
          255 45 -86 105 -165 hhcurveto
          -115 -34 callsubr
          75 75 46 -50 -170 -20 vhcurveto
          -225 hlineto
          endchar
        </CharString>
        <CharString name="afii10048">
          303 -8 callgsubr
          310 90 220 90 -10 -20 -24 callgsubr
          75 140 230 140 hintmask 10110111
          544 80 rmoveto
          -55 -50 60 210 37 hvcurveto
          210 37 71 60 55 hhcurveto
          55 49 -60 -210 -37 hvcurveto
          -210 -37 -70 -60 -55 hhcurveto
          302 270 rmoveto
          255 45 -86 105 -150 hhcurveto
          -145 -118 -100 -210 -47 hvcurveto
          -75 hlineto
          hintmask 01101111
          53 300 rlineto
          -140 -92 callgsubr
          54 310 rlineto
          75 hlineto
          hintmask 10110111
          -220 -29 83 -100 145 hhcurveto
          150 123 105 255 45 hvcurveto
          endchar
        </CharString>
        <CharString name="afii10049">
          53 0 80 -69 -21 270 90 260 90 hstemhm
          34 140 186 140 hintmask 10111100
          405 260 rmoveto
          -45 -260 -46 callgsubr
          -196 hlineto
          -190 -94 -80 -141 -25 hvcurveto
          -30 -169 149 -15 0 vvcurveto
          0 -69 -15 -38 -80 vhcurveto
          -40 -85 rlineto
          -25 -12 -9 26 callsubr
          hintmask 01111100
          0 28 -15 60 60 54 45 55 24 vhcurveto
          48 105 rlineto
          45 20 22 20 44 hhcurveto
          5 90 rmoveto
          -90 -33 40 90 16 hvcurveto
          90 16 47 40 90 hhcurveto
          56 hlineto
          -46 -260 rlineto
          endchar
        </CharString>
        <CharString name="afii10050">
          -42 21 -21 610 200 -24 callgsubr
          vstemhm
          587 610 rmoveto
          -31 callgsubr
          -95 hlineto
          hintmask 11100000
          -34 -110 rlineto
          -310 -92 callgsubr
          107 610 rlineto
          endchar
        </CharString>
        <CharString name="afii10051">
          113 -30 90 -39 -21 370 90 150 90 hstemhm
          105 140 -24 callsubr
          hintmask 10111100
          479 140 rmoveto
          -55 -10 -1 callsubr
          -30 -18 10 -81 callsubr
          -29 -36 callsubr
          31 -20 50 115 39 callgsubr
          20 115 rlineto
          125 23 -66 80 -150 hhcurveto
          -70 -53 -15 0 hvcurveto
          29 165 rlineto
          170 -84 callsubr
          -440 -59 callsubr
          130 hlineto
          hintmask 01111100
          -107 -610 rlineto
          140 hlineto
          62 355 rlineto
          42 callgsubr
          endchar
        </CharString>
        <CharString name="afii10052">
          -42 21 -21 610 90 50 150 hstem
          60 -56 callgsubr
          200 hmoveto
          107 610 -43 callsubr
          363 900 32 callgsubr
          endchar
        </CharString>
        <CharString name="afii10053">
          -22 -10 90 230 90 220 90 hstem
          25 -56 callgsubr
          460 400 rmoveto
          -225 hlineto
          170 40 64 50 75 hhcurveto
          75 -94 callsubr
          -115 -165 -124 -105 -255 -45 vhcurveto
          27 callsubr
          115 79 55 0 hvcurveto
          -30 -81 callgsubr
          -53 -45 -75 -85 -47 50 180 22 vhcurveto
          225 hlineto
          endchar
        </CharString>
        <CharString name="afii10054">
          -22 -10 90 540 44 callgsubr
          -104 callgsubr
          endchar
        </CharString>
        <CharString name="afii10055">
          -267 -75 callgsubr
          hstem
          50 -56 callgsubr
          25 callgsubr
          endchar
        </CharString>
        <CharString name="afii10056">
          -257 -75 callgsubr
          85 -6 callsubr
          -50 150 -40 140 -50 150 hintmask 11101000
          60 -85 callgsubr
          -91 callsubr
          3 215 rmoveto
          hintmask 11110100
          -14 callgsubr
          200 hmoveto
          -14 callgsubr
          endchar
        </CharString>
        <CharString name="afii10057">
          -107 -38 callgsubr
          hstem
          15 callgsubr
          -76 callsubr
          endchar
        </CharString>
        <CharString name="afii10058">
          353 -10 100 -69 -21 360 90 160 26 callgsubr
          200 140 hintmask 10110111
          39 80 rmoveto
          -10 -15 5 -81 callsubr
          -24 -36 callsubr
          33 -15 35 vhcurveto
          hintmask 01111011
          3 callsubr
          210 -35 callsubr
          -70 hlineto
          -7 callsubr
          -425 hlineto
          -125 -540 rlineto
          -60 -14 -21 -20 -24 hhcurveto
          619 280 rmoveto
          90 33 -40 -95 -17 hvcurveto
          hintmask 10110111
          -95 -17 -47 -40 -90 hhcurveto
          -70 hlineto
          19 callsubr
          endchar
        </CharString>
        <CharString name="afii10059">
          363 0 90 250 90 270 -12 callsubr
          195 -21 callgsubr
          610 430 rmoveto
          19 callsubr
          -91 callsubr
          -48 -270 rlineto
          -195 hlineto
          48 270 rlineto
          -140 -92 callgsubr
          59 340 rlineto
          195 hlineto
          -59 -340 rlineto
          210 hlineto
          8 callsubr
          135 23 hvcurveto
          135 24 -66 80 3 callgsubr
          -70 hlineto
          -7 callsubr
          endchar
        </CharString>
        <CharString name="afii10060">
          113 21 -21 370 90 150 90 hstem
          105 140 15 callgsubr
          307 355 rmoveto
          42 callgsubr
          -44 -255 rlineto
          140 hlineto
          44 255 rlineto
          125 23 -66 80 -150 hhcurveto
          -70 -53 -15 0 hvcurveto
          29 165 rlineto
          170 -84 callsubr
          -440 -59 callsubr
          130 hlineto
          -107 -610 7 callgsubr
        </CharString>
        <CharString name="afii10061">
          58 31 callsubr
          60 150 -24 callgsubr
          hintmask 10110110
          431 890 32 callgsubr
          -142 -525 rmoveto
          0 77 -77 callsubr
          -30 hlineto
          hintmask 01101110
          52 295 rlineto
          -140 -92 callgsubr
          55 315 rlineto
          45 -4 callsubr
          hintmask 10110110
          -64 callgsubr
          -82 15 0 vvcurveto
          endchar
        </CharString>
        <CharString name="afii10062">
          18 -15 90 625 -20 55 -17 callsubr
          105 -11 callgsubr
          hintmask 11101100
          406 805 rmoveto
          hintmask 11011100
          -30 -16 -93 callsubr
          hintmask 11101100
          -50 -9 -24 -20 -30 hhcurveto
          -47 -440 -71 callsubr
        </CharString>
        <CharString name="afii10065">
          -73 callsubr
          hstemhm
          15 140 7 callsubr
          hintmask 10111100
          -100 callgsubr
          hintmask 01111100
          -103 callsubr
          hintmask 10111100
          -95 callgsubr
          endchar
        </CharString>
        <CharString name="afii10066">
          -2 -10 90 295 95 245 -20 hstemhm
          25 110 -110 140 180 140 hintmask 11110100
          582 610 rmoveto
          -1 105 -155 -25 -195 -32 -106 -88 -43 -245 rlinecurve
          -17 -95 rlineto
          -155 -27 70 -85 145 hhcurveto
          145 100 85 155 27 hvcurveto
          155 27 -70 85 -120 hhcurveto
          -65 -55 -30 -55 -40 hvcurveto
          22 125 60 52 144 23 rrcurveto
          -107 -210 rmoveto
          50 33 -40 -105 -19 hvcurveto
          -110 -19 -47 -40 -50 hhcurveto
          hintmask 11101100
          -50 -33 40 110 19 hvcurveto
          105 19 47 40 50 hhcurveto
          endchar
        </CharString>
        <CharString name="afii10067">
          -27 0 90 120 90 110 90 hstemhm
          -62 callgsubr
          125 140 -120 120 -120 140 hintmask 11111000
          390 260 rmoveto
          0 109 20 16 90 vhcurveto
          70 12 -49 60 -145 hhcurveto
          -200 hlineto
          -25 callsubr
          200 hlineto
          hintmask 11110010
          165 70 60 75 13 hvcurveto
          20 110 -123 15 0 vvcurveto
          -73 150 rmoveto
          hintmask 11111000
          40 21 -24 -31 -6 hvcurveto
          -30 -5 -30 -25 -40 hhcurveto
          -60 hlineto
          20 110 rlineto
          25 -200 rmoveto
          hintmask 11110100
          60 20 -25 -35 -6 hvcurveto
          -35 -6 -30 -25 -60 hhcurveto
          -60 hlineto
          22 120 rlineto
          endchar
        </CharString>
        <CharString name="afii10068">
          -127 9 callsubr
          90 -22 callgsubr
          endchar
        </CharString>
        <CharString name="afii10069">
          43 -140 230 -90 90 320 90 hstemhm
          90 133 112 140 hintmask 10111000
          188 500 rmoveto
          -71 -290 rlineto
          -21 -85 -51 -35 0 vvcurveto
          -50 hlineto
          -39 -230 rlineto
          109 hlineto
          hintmask 01111000
          -62 callgsubr
          rlineto
          305 hlineto
          hintmask 10111000
          -29 callgsubr
          -382 -410 rmoveto
          0 51 35 21 85 vhcurveto
          49 200 rlineto
          105 hlineto
          -57 -320 rlineto
          endchar
        </CharString>
        <CharString name="afii10070">
          -54 callsubr
          hstem
          -51 callsubr
          -65 callgsubr
          cntrmask 11100000
          -107 callgsubr
          endchar
        </CharString>
        <CharString name="afii10071">
          -54 callsubr
          0 callsubr
          hstemhm
          -51 callsubr
          -95 -32 callsubr
          -80 140 hintmask 11111001
          -107 callgsubr
          -9 715 rmoveto
          hintmask 11110110
          -107 callsubr
        </CharString>
        <CharString name="afii10072">
          213 -8 callgsubr
          210 90 120 90 -10 -20 hstemhm
          290 140 hintmask 01110100
          327 210 rmoveto
          -37 -210 rlineto
          140 hlineto
          37 210 rlineto
          25 4 callsubr
          hintmask 10110100
          -65 callsubr
          -83 10 0 vvcurveto
          0 76 10 26 55 vhcurveto
          32 70 rlineto
          -70 callgsubr
          -15 hlineto
          hintmask 10101100
          36 200 rlineto
          -91 callsubr
          -36 -200 rlineto
          -15 hlineto
          -30 -10 15 25 -3 hvcurveto
          -9 90 rlineto
          hintmask 10110100
          45 -4 -27 35 -70 hhcurveto
          -45 -37 -15 0 hvcurveto
          1 -80 rlineto
          5 hlineto
          0 11 5 10 10 9 -10 -15 1 vhcurveto
          8 -70 rlineto
          6 -55 72 -10 0 vvcurveto
          0 -85 -10 -28 -65 vhcurveto
          -34 -80 rlineto
          -15 -7 -12 -10 -10 hhcurveto
          -10 -10 5 0 hvcurveto
          -5 hlineto
          -29 -36 callsubr
          33 -15 45 70 40 35 45 19 vhcurveto
          42 100 rlineto
          25 11 17 15 30 hhcurveto
          endchar
        </CharString>
        <CharString name="afii10073">
          -92 17 callsubr
          255 150 vstem
          189 80 rmoveto
          -90 -33 40 -81 callsubr
          -59 -36 callsubr
          61 -50 125 160 70 60 80 14 vhcurveto
          21 115 -123 15 0 vvcurveto
          0 118 15 18 100 vhcurveto
          75 13 -50 60 -155 hhcurveto
          -110 -78 -50 0 hvcurveto
          31 -80 rlineto
          10 hlineto
          0 47 40 75 60 20 -25 -30 -5 vhcurveto
          -40 -7 -30 -25 -50 hhcurveto
          -85 hlineto
          -15 -90 rlineto
          85 hlineto
          60 20 -25 -3 callsubr
          -29 -25 -65 hhcurveto
          endchar
        </CharString>
        <CharString name="afii10074">
          23 21 -21 500 -20 hstem
          -49 callsubr
          vstem
          -71 callgsubr
          endchar
        </CharString>
        <CharString name="afii10075">
          23 -66 callsubr
          70 -17 callsubr
          -62 callgsubr
          -80 -11 callgsubr
          -80 140 hintmask 11101001
          -71 callgsubr
          -199 120 rmoveto
          hintmask 11010110
          -30 -17 -93 callsubr
          hintmask 11101010
          -25 callgsubr
        </CharString>
        <CharString name="afii10076">
          30 callgsubr
          hstemhm
          -62 callgsubr
          hintmask 01101100
          489 395 rmoveto
          -70 callgsubr
          -30 hlineto
          hintmask 01110100
          -52 callgsubr
          40 4 callsubr
          hintmask 10101100
          -65 callsubr
          -83 10 0 vvcurveto
          0 76 10 26 55 vhcurveto
          endchar
        </CharString>
        <CharString name="afii10077">
          8 -8 callgsubr
          410 90 hstemhm
          75 125 130 140 hintmask 10111000
          34 80 rmoveto
          -10 -10 5 -81 callsubr
          -24 -36 callsubr
          33 -15 35 90 62 55 115 28 vhcurveto
          59 22 callgsubr
          115 hlineto
          hintmask 01111000
          -72 -410 -32 callgsubr
          -385 hlineto
          -80 -340 rlineto
          hintmask 10111000
          -60 -15 -24 -20 -20 hhcurveto
          endchar
        </CharString>
        <CharString name="afii10078">
          173 21 -21 500 39 callsubr
          310 -56 callgsubr
          223 220 rmoveto
          6 30 1 30 0 vvcurveto
          4 hlineto
          0 4 -30 10 -30 vhcurveto
          51 -140 rlineto
          110 hlineto
          99 140 rlineto
          22 30 14 30 0 vvcurveto
          4 hlineto
          0 -9 -30 -6 -30 vhcurveto
          -38 -220 -32 callgsubr
          -140 hlineto
          -179 -250 rlineto
          -15 -20 -12 -30 -83 callsubr
          -2 30 -7 20 vhcurveto
          -91 250 -60 callgsubr
          140 hlineto
          endchar
        </CharString>
        <CharString name="afii10079">
          23 21 -21 210 90 200 -20 23 callsubr
          -91 callsubr
          -36 -200 rlineto
          -19 callgsubr
          -52 callgsubr
          160 hlineto
          -37 -210 7 callgsubr
        </CharString>
        <CharString name="afii10080">
          -10 90 340 44 callgsubr
          -106 callgsubr
          endchar
        </CharString>
        <CharString name="afii10081">
          23 9 callsubr
          90 23 callsubr
          -440 hlineto
          -92 callsubr
          72 410 rlineto
          160 hlineto
          13 callsubr
          endchar
        </CharString>
        <CharString name="afii10082">
          -82 callgsubr
        </CharString>
        <CharString name="afii10083">
          -82 -52 callsubr
          hstem
          15 -56 callgsubr
          334 420 rmoveto
          -49 callgsubr
          -62 50 -100 -150 -100 -85 -175 -30 vhcurveto
          -175 -31 70 -85 160 hhcurveto
          100 79 50 -89 callgsubr
          -47 -40 -65 -75 -33 40 130 23 vhcurveto
          130 23 47 40 65 hhcurveto
          endchar
        </CharString>
        <CharString name="afii10084">
          -107 9 callsubr
          90 hstem
          130 -56 callgsubr
          503 500 rmoveto
          -430 -59 callsubr
          145 hlineto
          13 callsubr
          72 410 rlineto
          145 hlineto
          endchar
        </CharString>
        <CharString name="afii10085">
          -52 -210 90 141 -51 callgsubr
          hstem
          275 -101 callsubr
          endchar
        </CharString>
        <CharString name="afii10086">
          153 14 callsubr
          -40 callsubr
          190 -20 hstem
          -51 callsubr
          105 140 105 140 cntrmask 00001110
          224 -200 rmoveto
          140 hlineto
          34 190 161 5 100 85 30 170 rlinecurve
          30 170 -70 85 -160 5 34 190 rcurveline
          -23 callgsubr
          -27 -150 -160 -5 -100 -85 -30 -170 rlinecurve
          -30 -170 70 -85 159 -5 rrcurveto
          216 430 rmoveto
          64 -5 33 -40 -22 -125 -22 -125 -48 -40 -65 -5 rrcurveto
          -140 hmoveto
          -65 5 -32 40 22 125 22 125 47 40 66 5 rrcurveto
          endchar
        </CharString>
        <CharString name="afii10087">
          -75 callsubr
        </CharString>
        <CharString name="afii10088">
          43 -13 callgsubr
          150 140 hintmask 01111000
          415 hmoveto
          hintmask 10111000
          -29 callgsubr
          -91 callsubr
          -73 -410 -36 callgsubr
          73 410 rlineto
          -91 callsubr
          hintmask 01111000
          -25 callsubr
          endchar
        </CharString>
        <CharString name="afii10089">
          -7 0 250 -90 90 250 -20 hstemhm
          -12 callgsubr
          150 140 hintmask 01111000
          248 160 rmoveto
          65 32 15 0 hvcurveto
          hintmask 10111000
          -30 -175 -32 callgsubr
          -140 hlineto
          -42 -235 rlineto
          0 -27 -15 -45 -50 -25 30 55 10 vhcurveto
          29 165 rlineto
          -91 callsubr
          -29 -165 rlineto
          hintmask 01111000
          -110 -20 54 -65 130 hhcurveto
          endchar
        </CharString>
        <CharString name="afii10090">
          263 0 90 410 39 callsubr
          130 140 130 140 cntrmask 00111000
          813 500 rmoveto
          -30 callsubr
          -88 -500 rlineto
          680 hlineto
          endchar
        </CharString>
        <CharString name="afii10091">
          293 -13 callgsubr
          130 140 130 140 cntrmask 00011100
          hintmask 01111100
          665 hmoveto
          hintmask 10111100
          -29 callgsubr
          -30 callsubr
          hintmask 01111100
          -25 callsubr
          endchar
        </CharString>
        <CharString name="afii10092">
          23 0 90 16 callgsubr
          70 90 hstem
          105 140 150 -56 callgsubr
          304 340 rmoveto
          29 160 rlineto
          -260 -59 callsubr
          120 hlineto
          -72 -410 rlineto
          205 hlineto
          5 hlineto
          10 10 0 1 10 hvcurveto
          139 8 62 59 18 102 rrcurveto
          110 20 -50 60 -165 hhcurveto
          -15 -90 rmoveto
          55 24 -30 -50 -9 hvcurveto
          24 callsubr
        </CharString>
        <CharString name="afii10093">
          218 0 90 16 callgsubr
          160 39 callsubr
          140 140 75 -56 callgsubr
          768 500 rmoveto
          -91 callsubr
          -92 callsubr
          -436 340 rmoveto
          29 160 -60 callgsubr
          195 -53 callgsubr
          34 callgsubr
          -55 29 callgsubr
        </CharString>
        <CharString name="afii10094">
          -37 0 90 16 callgsubr
          160 39 callsubr
          150 -56 callgsubr
          244 340 rmoveto
          29 160 -60 callgsubr
          205 -53 callgsubr
          24 callsubr
        </CharString>
        <CharString name="afii10095">
          -82 17 callsubr
          132 210 rmoveto
          175 hlineto
          -100 -28 -45 -30 -65 hhcurveto
          -65 -33 40 -81 callsubr
          -59 -36 callsubr
          61 -50 100 160 -48 callgsubr
          vhcurveto
          175 30 -70 85 -150 hhcurveto
          -100 -78 -50 0 hvcurveto
          31 -80 rlineto
          10 hlineto
          0 47 40 65 55 29 -30 -90 -6 vhcurveto
          -170 hlineto
          endchar
        </CharString>
        <CharString name="afii10096">
          193 -8 callgsubr
          210 90 120 90 -10 -20 hstemhm
          -62 callgsubr
          360 140 hintmask 10110110
          479 80 rmoveto
          -45 -29 35 135 24 hvcurveto
          135 23 42 35 45 hhcurveto
          45 28 -35 -135 -23 hvcurveto
          -135 -24 -41 -35 -45 hhcurveto
          -16 -90 rmoveto
          135 -48 callgsubr
          hvcurveto
          175 30 -41 callsubr
          -135 -84 -80 -130 -38 hvcurveto
          -60 hlineto
          hintmask 01101110
          -52 callgsubr
          60 hlineto
          hintmask 10110110
          -135 -9 55 -85 135 hhcurveto
          endchar
        </CharString>
        <CharString name="afii10097">
          -12 11 -21 31 -21 180 90 140 90 hstemhm
          30 140 140 140 hintmask 10111100
          297 270 rmoveto
          -55 -20 25 45 7 hvcurveto
          45 8 30 25 55 hhcurveto
          60 hlineto
          -25 -140 rlineto
          -160 -55 rmoveto
          0 -66 -5 -23 -50 vhcurveto
          -25 -55 rlineto
          -15 -7 -12 -10 -10 hhcurveto
          -10 -10 5 0 hvcurveto
          -5 hlineto
          -29 -36 callsubr
          33 -15 45 70 38 35 45 21 vhcurveto
          32 70 rlineto
          25 12 20 15 25 hhcurveto
          45 hlineto
          hintmask 01111100
          -31 -180 -32 callgsubr
          -200 hlineto
          -155 -77 -65 -90 -16 hvcurveto
          -20 -115 127 -15 0 vvcurveto
          endchar
        </CharString>
        <CharString name="afii10098">
          -127 9 callsubr
          190 hstemhm
          -62 callgsubr
          vstemhm
          467 410 rmoveto
          33 190 rlineto
          -95 hlineto
          hintmask 11100000
          -32 -100 rlineto
          -240 hlineto
          -92 callsubr
          72 410 rlineto
          endchar
        </CharString>
        <CharString name="afii10099">
          23 -140 90 71 2 callsubr
          291 -50 rmoveto
          -30 -19 10 -81 callsubr
          -29 -36 callsubr
          32 -20 50 115 82 70 100 18 vhcurveto
          40 230 rlineto
          120 22 4 callgsubr
          17 95 rlineto
          125 -84 callsubr
          -125 hlineto
          19 110 rlineto
          -23 callgsubr
          -12 -70 rlineto
          -55 -59 callsubr
          55 hlineto
          -92 callsubr
          52 295 rlineto
          0 40 60 55 45 25 -30 -65 -12 vhcurveto
          -40 -230 rlineto
          -55 -10 -1 callsubr
          endchar
        </CharString>
        <CharString name="afii10100">
          -127 9 callsubr
          90 50 150 -22 callgsubr
          -134 290 -101 callgsubr
        </CharString>
        <CharString name="afii10101">
          -82 17 callsubr
          382 300 rmoveto
          -170 hlineto
          90 26 41 30 55 hhcurveto
          -49 callgsubr
          -62 50 -100 -150 -100 -85 -175 -30 vhcurveto
          -175 -31 70 -85 160 hhcurveto
          100 79 50 -89 callgsubr
          -47 -40 -65 -65 -35 30 100 8 vhcurveto
          175 hlineto
          endchar
        </CharString>
        <CharString name="afii10102">
          -72 -52 callsubr
          hstem
          -51 callsubr
          135 -56 callgsubr
          314 -103 callgsubr
          endchar
        </CharString>
        <CharString name="afii10103">
          -277 -66 callsubr
          85 150 hstem
          45 -56 callgsubr
          133 -87 callgsubr
          -32 215 -22 callsubr
        </CharString>
        <CharString name="afii10104">
          -257 -66 callsubr
          85 -6 callsubr
          -50 150 -45 140 -45 150 hintmask 11101000
          143 -87 callgsubr
          -132 215 rmoveto
          hintmask 11110100
          -40 -42 -102 callsubr
          -28 35 -40 hhcurveto
          200 hmoveto
          -40 -42 -102 callsubr
          -28 35 -40 hhcurveto
          hintmask 11101000
          -208 -215 rmoveto
          -88 -500 -32 callgsubr
          endchar
        </CharString>
        <CharString name="afii10105">
          -257 -200 90 610 -20 85 150 hstem
          65 -56 callgsubr
          -20 -110 rmoveto
          -29 -20 25 -81 callsubr
          -50 -85 rlineto
          0 44 -30 60 124 39 callgsubr
          94 530 rlineto
          -91 callsubr
          -94 -530 rlineto
          -55 -9 -30 -25 -40 hhcurveto
          281 825 -22 callsubr
        </CharString>
        <CharString name="afii10106">
          243 -10 100 -69 -21 250 90 70 90 hstemhm
          75 125 125 140 150 140 hintmask 10111110
          524 340 rmoveto
          29 160 rlineto
          -380 hlineto
          -80 -340 rlineto
          -60 -15 -24 -20 -20 hhcurveto
          -10 -10 5 -81 callsubr
          -24 -36 callsubr
          33 -15 35 90 62 55 115 28 vhcurveto
          59 22 callgsubr
          110 hlineto
          hintmask 01111110
          -72 -410 rlineto
          205 -53 callgsubr
          hintmask 10111110
          24 callsubr
        </CharString>
        <CharString name="afii10107">
          253 0 90 140 90 180 -20 hstem
          45 45 callgsubr
          cntrmask 00011100
          531 320 rmoveto
          32 180 rlineto
          -91 callsubr
          -32 -180 -36 callgsubr
          32 180 -60 callgsubr
          140 hlineto
          40 230 -2 callsubr
          -40 -230 rlineto
          205 hlineto
          165 70 60 100 18 hvcurveto
          100 17 -49 60 -165 hhcurveto
          -16 -90 rmoveto
          55 25 -30 -3 callsubr
          -36 -30 -55 hhcurveto
          -65 hlineto
          -12 callgsubr
          rlineto
          endchar
        </CharString>
        <CharString name="afii10108">
          28 21 2 callsubr
          88 -74 callgsubr
        </CharString>
        <CharString name="afii10109">
          30 callgsubr
          50 -6 callsubr
          -62 callgsubr
          hintmask 01101110
          361 690 32 callgsubr
          -7 -295 rmoveto
          -70 callgsubr
          -30 hlineto
          hintmask 01110110
          -52 callgsubr
          40 4 callsubr
          hintmask 10101110
          -65 callsubr
          -73 10 0 vvcurveto
          0 66 10 26 55 vhcurveto
          endchar
        </CharString>
        <CharString name="afii10110">
          -52 -210 90 141 -51 callgsubr
          55 -17 callsubr
          70 -11 callgsubr
          hintmask 11110110
          275 -101 callsubr
          -82 105 rmoveto
          hintmask 11101110
          -30 -16 -93 callsubr
          hintmask 11110110
          -50 -9 -24 -20 12 callgsubr
        </CharString>
        <CharString name="afii10145">
          103 -150 240 -90 90 610 -20 -24 callgsubr
          -24 callsubr
          hintmask 01111000
          240 hmoveto
          hintmask 10111000
          -12 -150 rlineto
          100 hlineto
          hintmask 01111000
          42 150 rlineto
          180 6 callgsubr
          -91 callsubr
          -108 -610 rlineto
          -210 hlineto
          108 610 -28 callgsubr
          endchar
        </CharString>
        <CharString name="afii10193">
          23 -13 callgsubr
          160 140 hintmask 01111000
          200 hmoveto
          hintmask 10111000
          -10 -140 rlineto
          100 hlineto
          hintmask 01111000
          40 140 rlineto
          155 hlineto
          -55 callgsubr
          -73 -410 rlineto
          -19 callgsubr
          73 410 -60 callgsubr
          endchar
        </CharString>
        <CharString name="afii61352">
          443 21 -21 210 90 50 80 200 70 10 -20 -24 callgsubr
          -24 callsubr
          55 5 callsubr
          hintmask 1111011110000000
          667 210 rmoveto
          300 hlineto
          15 90 rlineto
          -300 hlineto
          -349 400 rmoveto
          -150 -92 callgsubr
          68 390 rlineto
          6 30 1 15 callsubr
          4 hlineto
          0 6 -35 8 -30 vhcurveto
          107 -390 rlineto
          150 6 callgsubr
          -91 callsubr
          -69 -390 rlineto
          -5 -30 -1 -66 callgsubr
          -6 35 -9 30 vhcurveto
          402 40 rmoveto
          100 88 75 105 19 hvcurveto
          hintmask 1110111110000000
          -53 callsubr
          14 80 rmoveto
          -30 -20 25 75 13 hvcurveto
          hintmask 1111011110000000
          75 13 30 25 30 hhcurveto
          30 20 -25 -75 -13 hvcurveto
          -75 -13 -30 -25 12 callgsubr
        </CharString>
        <CharString name="agrave">
          -73 callsubr
          40 -9 callsubr
          7 callsubr
          hintmask 10110110
          -100 callgsubr
          hintmask 01110110
          -103 callsubr
          hintmask 10110110
          -95 callgsubr
          hintmask 00001000
          -107 485 -83 callgsubr
        </CharString>
        <CharString name="amacron">
          -73 callsubr
          60 38 callgsubr
          7 callsubr
          hintmask 10110110
          -100 callgsubr
          hintmask 01110110
          -103 callsubr
          hintmask 10110110
          -95 callgsubr
          hintmask 00001000
          -121 445 -79 callsubr
        </CharString>
        <CharString name="ampersand">
          88 -8 callgsubr
          625 85 hstemhm
          -5 140 -80 80 -80 140 105 140 -5 130 hintmask 01110001
          615 hmoveto
          -87 135 43 45 35 55 15 85 rlinecurve
          -130 hlineto
          -9 -50 -13 -45 0 vvcurveto
          -99 150 rlineto
          hintmask 10101010
          0 149 75 19 110 vhcurveto
          80 14 -57 70 -120 hhcurveto
          -125 -83 -70 -90 -16 hvcurveto
          -17 -100 78 -70 0 vvcurveto
          hintmask 10110010
          0 -163 -70 -23 -130 vhcurveto
          -105 -18 70 -85 145 hhcurveto
          115 85 60 0 hvcurveto
          hintmask 01110010
          32 -50 rlineto
          hintmask 10110010
          -196 80 rmoveto
          -65 -37 45 55 9 hvcurveto
          13 75 78 45 0 vvcurveto
          123 -185 rlineto
          0 -46 -35 -75 vhcurveto
          hintmask 10100110
          32 470 rmoveto
          50 9 30 25 30 hhcurveto
          25 20 -25 -40 -7 hvcurveto
          -10 -60 -69 -50 0 vvcurveto
          0 -35 55 7 45 vhcurveto
          endchar
        </CharString>
        <CharString name="aogonek">
          -27 -37 callgsubr
          -73 callsubr
          hstemhm
          15 140 140 8 callgsubr
          -175 140 hintmask 0010111001000000
          -100 callgsubr
          hintmask 0001111001000000
          -103 callsubr
          hintmask 0010111001000000
          -95 callgsubr
          hintmask 1000000100000000
          57 -330 -44 callsubr
          hintmask 0100000010000000
          -99 callsubr
          hintmask 1000000100000000
          -39 callsubr
        </CharString>
        <CharString name="apple">
          708 260 165 -149 -21 hstemhm
          150 30 0 170 330 160 0 36 0 160 hintmask 10100100
          195 260 rmoveto
          29 165 -194 -165 rlineto
          hintmask 10010100
          379 80 rmoveto
          45 8 -33 40 -45 hhcurveto
          -45 -47 -40 -45 -8 hvcurveto
          hintmask 01010100
          -45 -7 32 -40 45 hhcurveto
          45 48 40 45 7 hvcurveto
          15 80 rmoveto
          60 -165 120 165 rlineto
          hintmask 10101010
          121 -160 rmoveto
          140 hlineto
          -115 140 rlineto
          -40 -140 rmoveto
          -61 165 -119 -165 rlineto
          384 160 rmoveto
          -91 callsubr
          115 -140 rlineto
          hintmask 10100100
          32 -20 rmoveto
          140 hlineto
          -115 140 rlineto
          hintmask 01101010
          164 20 rmoveto
          -91 callsubr
          115 -140 rlineto
          39 140 rmoveto
          60 -165 120 165 rlineto
          endchar
        </CharString>
        <CharString name="aring">
          -15 -73 callsubr
          45 65 80 65 hstemhm
          -51 callsubr
          -19 75 70 75 -46 140 hintmask 1011001001000000
          -100 callgsubr
          hintmask 0111001001000000
          -103 callsubr
          hintmask 1011001001000000
          -95 callgsubr
          hintmask 0000110110000000
          -22 445 -97 callgsubr
        </CharString>
        <CharString name="asciicircum">
          -87 461 -21 280 -20 hstem
          286 720 rmoveto
          -234 -280 rlineto
          130 hlineto
          133 160 77 -160 rlineto
          130 hlineto
          -136 280 rlineto
          endchar
        </CharString>
        <CharString name="asciitilde">
          -59 225 120 -50 50 -50 120 hstemhm
          hintmask 01000000
          448 405 rmoveto
          -9 hlineto
          1 -41 -60 -40 hhcurveto
          hintmask 00100000
          -55 -12 70 -90 hhcurveto
          -60 -65 -60 -55 -30 hvcurveto
          65 -65 rlineto
          9 hlineto
          -1 41 60 40 hhcurveto
          hintmask 10000000
          55 12 -70 90 hhcurveto
          60 65 60 55 29 hvcurveto
          endchar
        </CharString>
        <CharString name="asterisk">
          -117 351 -21 370 -20 hstem
          150 90 vstem
          273 10 callsubr
          -19 -108 -90 58 -59 -80 86 -55 -105 -55 31 -80 110 57 -19 -107 rlineto
          90 hlineto
          19 107 90 -57 59 80 -87 55 106 55 -31 80 -110 -58 19 108 rlineto
          endchar
        </CharString>
        <CharString name="at">
          403 -120 90 85 90 300 90 95 90 hstem
          15 120 105 130 150 130 125 120 vstem
          549 170 rmoveto
          0 -29 -25 -45 -40 -34 35 115 21 vhcurveto
          115 20 41 35 45 hhcurveto
          40 22 -45 0 hvcurveto
          -167 -520 rmoveto
          150 85 55 -89 callgsubr
          -58 -45 -110 -180 -115 140 190 33 vhcurveto
          190 34 165 140 180 hhcurveto
          180 115 -140 -190 -34 hvcurveto
          -120 -21 -47 -40 -45 hhcurveto
          -25 -12 15 0 hvcurveto
          65 370 rlineto
          -90 hlineto
          -18 -45 rlineto
          -5 hlineto
          0 -35 55 -75 -105 -94 -80 -160 -28 vhcurveto
          -160 -29 66 -80 105 hhcurveto
          85 45 55 0 hvcurveto
          5 hlineto
          0 30 -55 90 125 106 90 155 27 vhcurveto
          240 43 -149 180 -260 hhcurveto
          -260 -211 -180 -240 -43 hvcurveto
          -240 -42 148 -180 250 hhcurveto
          endchar
        </CharString>
        <CharString name="atilde">
          -73 callsubr
          55 -17 callgsubr
          15 140 7 callsubr
          hintmask 1011000110000000
          -100 callgsubr
          hintmask 0111000110000000
          -103 callsubr
          hintmask 1011000110000000
          -95 callgsubr
          hintmask 0000010000000000
          114 480 rmoveto
          -9 hlineto
          1 -23 -40 -25 hhcurveto
          hintmask 0000001000000000
          -35 -13 45 -55 hhcurveto
          -50 -48 -50 -50 -14 hvcurveto
          51 -30 rlineto
          9 hlineto
          -1 23 40 25 hhcurveto
          hintmask 0000100000000000
          35 12 -45 55 hhcurveto
          50 48 50 50 14 hvcurveto
          endchar
        </CharString>
        <CharString name="b">
          3 -50 callgsubr
          420 90 190 -20 hstemhm
          45 -9 callgsubr
          hintmask 10111100
          253 390 rmoveto
          0 36 30 45 55 33 -40 -130 -23 vhcurveto
          -125 -22 -48 -40 -45 hhcurveto
          -55 -19 60 0 hvcurveto
          -2 555 rmoveto
          -47 -40 rlineto
          hintmask 01111100
          -116 -660 rlineto
          100 hlineto
          20 60 rlineto
          5 hlineto
          hintmask 10111100
          0 33 -70 90 115 -48 callgsubr
          vhcurveto
          175 30 -70 85 -125 hhcurveto
          -60 -45 -30 0 hvcurveto
          39 220 rlineto
          endchar
        </CharString>
        <CharString name="backslash">
          -107 -75 callgsubr
          hstem
          238 10 callsubr
          -91 callsubr
          187 -47 callgsubr
          endchar
        </CharString>
        <CharString name="bar">
          27 callgsubr
          183 10 callsubr
          -159 -900 rlineto
          140 hlineto
          159 900 rlineto
          endchar
        </CharString>
        <CharString name="braceleft">
          29 callsubr
          -5 215 10 callgsubr
          -140 230 cntrmask 11100000
          hintmask 11110000
          169 280 rmoveto
          0 92 10 21 120 vhcurveto
          30 170 rlineto
          35 6 29 25 30 hhcurveto
          hintmask 11100100
          35 -84 callsubr
          -35 hlineto
          -135 -70 -60 -90 -16 hvcurveto
          -30 -170 rlineto
          hintmask 11110000
          -65 -12 -23 -20 -55 hhcurveto
          -16 -90 rlineto
          hintmask 11101000
          55 16 -20 -65 -11 hvcurveto
          -30 -170 rlineto
          -90 -16 50 -60 135 hhcurveto
          hintmask 11100100
          35 hlineto
          15 90 rlineto
          -35 hlineto
          hintmask 11110000
          -30 -20 25 35 6 hvcurveto
          30 170 rlineto
          21 120 -88 10 0 vvcurveto
          endchar
        </CharString>
        <CharString name="braceright">
          29 callsubr
          -15 230 10 callgsubr
          -140 215 cntrmask 11100000
          hintmask 11101000
          214 280 rmoveto
          0 -92 -10 -21 -120 vhcurveto
          -30 -170 rlineto
          -35 -6 -30 -25 -30 hhcurveto
          hintmask 11110000
          -34 hlineto
          -15 -90 rlineto
          34 hlineto
          135 70 60 90 16 hvcurveto
          30 170 rlineto
          hintmask 11100100
          65 11 24 20 55 hhcurveto
          16 90 rlineto
          hintmask 11110000
          -55 -17 20 65 12 hvcurveto
          30 170 rlineto
          90 16 -50 60 -135 hhcurveto
          -35 -59 callsubr
          35 hlineto
          hintmask 11101000
          30 21 -25 -35 -6 hvcurveto
          -30 -170 rlineto
          -21 -120 88 -10 0 vvcurveto
          endchar
        </CharString>
        <CharString name="bracketleft">
          -222 -170 90 720 90 -24 callgsubr
          -140 240 hintmask 11010000
          285 -80 rmoveto
          hintmask 11100000
          -100 hlineto
          127 720 rlineto
          hintmask 11010000
          100 -84 callsubr
          -240 hlineto
          -158 -900 rlineto
          240 hlineto
          endchar
        </CharString>
        <CharString name="bracketright">
          -222 -170 90 720 90 hstemhm
          -15 240 10 callgsubr
          hintmask 11100000
          -44 -170 rmoveto
          239 hlineto
          158 900 rlineto
          -240 -59 callsubr
          hintmask 11010000
          100 hlineto
          -127 -720 rlineto
          hintmask 11100000
          -99 hlineto
          endchar
        </CharString>
        <CharString name="breve">
          -217 560 -17 callsubr
          -15 -11 callgsubr
          hintmask 10110000
          256 630 rmoveto
          hintmask 01110000
          -30 -17 -93 callsubr
          hintmask 10110000
          -25 callgsubr
        </CharString>
        <CharString name="brokenbar">
          27 callgsubr
          164 -200 rmoveto
          69 390 rlineto
          -91 callsubr
          -69 -390 rlineto
          299 900 rmoveto
          -91 callsubr
          -69 -390 7 callgsubr
        </CharString>
        <CharString name="bullet">
          -127 191 -21 280 -20 hstem
          384 310 rmoveto
          80 14 -49 60 -80 hhcurveto
          -80 -71 -60 -80 -14 hvcurveto
          -80 -14 49 -60 80 hhcurveto
          80 71 60 80 14 hvcurveto
          endchar
        </CharString>
        <CharString name="c">
          -82 -52 callsubr
          hstem
          15 -56 callgsubr
          334 420 rmoveto
          -49 callgsubr
          -62 50 -100 -150 -100 -85 -175 -30 vhcurveto
          -175 -31 70 -85 160 hhcurveto
          100 79 50 -89 callgsubr
          -47 -40 -65 -75 -33 40 130 23 vhcurveto
          130 23 47 40 65 hhcurveto
          endchar
        </CharString>
        <CharString name="cacute">
          -82 -52 callsubr
          40 -9 callsubr
          hintmask 11010000
          334 420 rmoveto
          -49 callgsubr
          -62 50 -100 -150 -100 -85 -175 -30 vhcurveto
          -175 -31 70 -85 160 hhcurveto
          100 79 50 -89 callgsubr
          -47 -40 -65 -75 -33 40 130 23 vhcurveto
          130 23 47 40 65 hhcurveto
          hintmask 00100000
          16 280 -101 callgsubr
        </CharString>
        <CharString name="caron">
          -217 587 -47 callsubr
          hstem
          294 566 -99 callgsubr
        </CharString>
        <CharString name="ccaron">
          -82 -52 callsubr
          77 -18 callgsubr
          hintmask 11001000
          334 420 rmoveto
          -49 callgsubr
          -62 50 -100 -150 -100 -85 -175 -30 vhcurveto
          -175 -31 70 -85 160 hhcurveto
          100 79 50 -89 callgsubr
          -47 -40 -65 -75 -33 40 130 23 vhcurveto
          130 23 47 40 65 hhcurveto
          hintmask 00110000
          50 146 -99 callgsubr
        </CharString>
        <CharString name="ccedilla">
          -82 -20 callgsubr
          -30 90 340 38 callgsubr
          37 170 -85 85 hintmask 00011100
          334 420 rmoveto
          -49 callgsubr
          -62 50 -100 -150 -100 -85 -175 -30 vhcurveto
          -175 -31 70 -85 160 hhcurveto
          100 79 50 -89 callgsubr
          -47 -40 -65 -75 -33 40 130 23 vhcurveto
          130 23 47 40 65 hhcurveto
          hintmask 10100010
          -64 -400 -33 callsubr
          hintmask 11000001
          -96 callsubr
        </CharString>
        <CharString name="cedilla">
          -342 -20 callgsubr
          hstemhm
          10 170 -85 85 hintmask 10110000
          88 20 -33 callsubr
          hintmask 11001000
          -96 callsubr
        </CharString>
        <CharString name="cent">
          -82 -70 150 340 140 hstem
          -51 callsubr
          25 130 vstem
          167 -70 rmoveto
          130 hlineto
          11 64 rlineto
          72 11 57 15 callsubr
          -79 callgsubr
          -47 -40 -65 -75 -33 40 130 23 vhcurveto
          130 23 47 40 65 hhcurveto
          -49 callgsubr
          -40 30 -62 15 vhcurveto
          9 55 rlineto
          -130 hlineto
          -10 -60 -110 -25 -74 -80 -25 -145 rlinecurve
          -26 -145 41 -80 106 -25 rrcurveto
          endchar
        </CharString>
        <CharString name="circumflex">
          -217 581 -47 callsubr
          hstem
          217 694 -98 callgsubr
        </CharString>
        <CharString name="colon">
          -337 -10 150 220 150 hstem
          10 150 vstem
          109 -23 callsubr
          65 370 -94 callgsubr
          endchar
        </CharString>
        <CharString name="comma">
          -68 callsubr
        </CharString>
        <CharString name="commaaccent">
          -407 -229 -31 callsubr
          hstem
          -15 130 vstem
          -28 -75 -105 callsubr
        </CharString>
        <CharString name="copyright">
          353 -40 90 75 80 290 80 75 90 hstem
          15 120 105 120 365 120 vstem
          301 -6 callgsubr
          -140 -24 70 -85 125 hhcurveto
          87 71 50 0 hvcurveto
          -28 65 rlineto
          -9 hlineto
          0 -47 -35 -50 -55 -37 45 100 17 vhcurveto
          100 18 53 45 45 hhcurveto
          50 35 -35 0 hvcurveto
          9 hlineto
          51 65 rlineto
          0 -54 50 -87 -115 -100 -85 -140 -25 vhcurveto
          137 -300 rmoveto
          -170 -103 125 175 31 hvcurveto
          175 31 147 125 170 hhcurveto
          170 103 -125 -175 -31 hvcurveto
          -175 -31 -147 -125 -170 hhcurveto
          122 690 rmoveto
          -240 -206 -175 -215 -38 hvcurveto
          -215 -38 144 -175 240 hhcurveto
          240 206 175 215 38 hvcurveto
          215 38 -144 175 -240 hhcurveto
          endchar
        </CharString>
        <CharString name="currency">
          43 21 -21 155 75 45 75 260 90 hstem
          65 140 190 -56 callgsubr
          22 155 rmoveto
          70 hlineto
          -27 -155 rlineto
          140 hlineto
          27 155 rlineto
          240 hlineto
          13 75 rlineto
          -240 hlineto
          8 45 rlineto
          60 hlineto
          8 callsubr
          125 22 hvcurveto
          130 23 -74 90 -180 hhcurveto
          -200 hlineto
          -62 -350 rlineto
          -70 hlineto
          -13 -75 rlineto
          70 hlineto
          -8 -45 rlineto
          -70 hlineto
          231 120 rmoveto
          46 260 rlineto
          60 hlineto
          85 37 -45 -85 -15 hvcurveto
          -85 -15 -53 -45 -85 hhcurveto
          endchar
        </CharString>
        <CharString name="d">
          3 -50 callgsubr
          420 90 190 -28 callsubr
          hintmask 10111100
          350 145 -68 callgsubr
          hintmask 01111100
          -60 100 vlineto
          endchar
        </CharString>
        <CharString name="dagger">
          -97 -179 -21 590 90 220 -20 hstem
          135 -56 callgsubr
          99 -200 rmoveto
          140 hlineto
          104 590 rlineto
          140 -84 callsubr
          -91 callsubr
          39 220 rlineto
          -91 callsubr
          -39 -220 rlineto
          -140 hlineto
          -16 -90 7 callgsubr
        </CharString>
        <CharString name="daggerdbl">
          -97 -179 -21 210 90 300 90 210 -20 hstem
          135 -56 callgsubr
          152 100 rmoveto
          -140 -59 callsubr
          140 hlineto
          -37 -210 rlineto
          140 hlineto
          37 210 rlineto
          140 -84 callsubr
          -91 callsubr
          53 300 rlineto
          140 -84 callsubr
          -91 callsubr
          37 210 rlineto
          -91 callsubr
          -37 -210 rlineto
          -140 hlineto
          -16 -90 7 callgsubr
        </CharString>
        <CharString name="dcaron">
          98 -50 callgsubr
          420 90 -5 -21 216 -28 callsubr
          45 110 hintmask 00011001
          623 645 rmoveto
          -30 -5 21 -25 25 hhcurveto
          -8 -40 -56 -35 0 vvcurveto
          25 -31 rlineto
          0 88 46 19 106 vhcurveto
          39 7 -21 25 -35 hhcurveto
          -25 -29 -25 -30 -6 hvcurveto
          hintmask 10101110
          -273 -500 -68 callgsubr
          hintmask 01101110
          -60 100 vlineto
          endchar
        </CharString>
        <CharString name="dcroat">
          3 -50 callgsubr
          390 90 40 90 90 -28 callsubr
          hintmask 10111110
          321 520 rmoveto
          95 hlineto
          -12 -70 rlineto
          0 -35 30 -60 -125 -100 -85 -160 -28 vhcurveto
          -160 -28 70 -85 115 -70 callsubr
          hintmask 01111110
          -60 100 vlineto
          91 520 rlineto
          55 -84 callsubr
          -55 -84 callsubr
          -23 callgsubr
          -9 -50 rlineto
          -95 hlineto
          13 -465 rmoveto
          hintmask 10111110
          0 -41 -60 -55 -45 -32 40 110 19 vhcurveto
          115 20 47 40 55 hhcurveto
          45 25 -30 0 hvcurveto
          endchar
        </CharString>
        <CharString name="degree">
          -117 370 80 180 80 hstem
          10 115 140 115 vstem
          306 630 rmoveto
          40 24 -30 -60 -10 hvcurveto
          -60 -11 -35 -30 -40 hhcurveto
          -40 -25 30 60 11 hvcurveto
          60 10 36 30 40 hhcurveto
          14 80 rmoveto
          -115 -83 -70 -100 -17 hvcurveto
          -100 -18 58 -70 115 hhcurveto
          115 82 70 100 18 hvcurveto
          100 17 -57 70 -115 hhcurveto
          endchar
        </CharString>
        <CharString name="dieresis">
          -202 570 140 hstem
          -15 -32 callsubr
          vstem
          180 710 rmoveto
          -107 callsubr
        </CharString>
        <CharString name="divide">
          -87 80 150 50 100 50 150 hstem
          135 150 cntrmask 11100000
          464 280 rmoveto
          18 100 rlineto
          -410 hlineto
          -18 -100 rlineto
          196 -50 -94 callgsubr
          62 -6 callgsubr
          -40 -41 -35 -40 -7 hvcurveto
          -40 -8 -93 callgsubr
          8 hvcurveto
          40 7 -29 35 -40 hhcurveto
          endchar
        </CharString>
        <CharString name="dollar">
          -22 -70 150 540 150 hstem
          -51 callsubr
          15 135 30 -56 callgsubr
          157 -70 rmoveto
          135 hlineto
          13 70 114 25 72 70 17 95 rlinecurve
          40 225 -325 -25 -12 callgsubr
          rrcurveto
          45 8 53 45 60 hhcurveto
          95 -86 callgsubr
          -43 40 -98 10 vhcurveto
          11 65 rlineto
          -135 hlineto
          -12 -70 -104 -25 -68 -71 -15 -84 rlinecurve
          -39 -225 324 25 -25 -140 rrcurveto
          20 callsubr
          -80 hhcurveto
          -105 -37 45 -81 callsubr
          -60 -36 callsubr
          43 -40 109 -10 vhcurveto
          endchar
        </CharString>
        <CharString name="dotaccent">
          -387 560 150 hstem
          -15 150 vstem
          185 710 -88 callsubr
        </CharString>
        <CharString name="dotlessi">
          -277 21 -21 500 39 callsubr
          vstem
          133 -87 callgsubr
          endchar
        </CharString>
        <CharString name="e">
          -54 callsubr
          hstem
          -51 callsubr
          -65 callgsubr
          cntrmask 11100000
          -107 callgsubr
          endchar
        </CharString>
        <CharString name="eacute">
          -54 callsubr
          40 -9 callsubr
          -65 callgsubr
          hintmask 11101100
          -107 callgsubr
          hintmask 00010000
          90 710 -101 callgsubr
        </CharString>
        <CharString name="ecaron">
          -54 callsubr
          77 -18 callgsubr
          -65 callgsubr
          hintmask 11100110
          -107 callgsubr
          hintmask 00011000
          123 576 -99 callgsubr
        </CharString>
        <CharString name="ecircumflex">
          -54 callsubr
          71 -18 callgsubr
          -65 callgsubr
          hintmask 11100110
          -107 callgsubr
          hintmask 00011000
          46 704 -98 callgsubr
        </CharString>
        <CharString name="edieresis">
          -54 callsubr
          -45 callgsubr
          hstemhm
          15 140 -88 -32 callsubr
          -87 140 hintmask 11101001
          -107 callgsubr
          hintmask 00010110
          -1 720 rmoveto
          -107 callsubr
        </CharString>
        <CharString name="edotaccent">
          -54 callsubr
          50 -9 callsubr
          7 150 3 140 hintmask 11101010
          -107 callgsubr
          hintmask 00010100
          99 720 -88 callsubr
        </CharString>
        <CharString name="egrave">
          -54 callsubr
          40 -9 callsubr
          -65 callgsubr
          hintmask 11101100
          -107 callgsubr
          hintmask 00010000
          -30 710 -83 callgsubr
        </CharString>
        <CharString name="eight">
          3 -11 callsubr
          hstemhm
          0 140 -115 115 -115 140 180 140 -115 140 hintmask 11010010
          310 315 rmoveto
          61 -25 44 -30 -14 -80 rrcurveto
          20 callsubr
          -75 hhcurveto
          -75 -33 40 60 10 hvcurveto
          14 80 56 30 69 25 rrcurveto
          54 305 rmoveto
          hintmask 11001100
          50 33 -40 -45 -8 hvcurveto
          -12 -65 -39 -25 -59 -20 -51 20 -31 25 12 65 rrcurveto
          45 8 47 40 50 hhcurveto
          16 90 rmoveto
          -145 -100 -85 -90 -16 hvcurveto
          -24 -135 130 -30 0 vvcurveto
          hintmask 11100010
          0 -166 -35 -28 -155 vhcurveto
          -105 -18 70 -85 170 hhcurveto
          170 100 85 105 18 hvcurveto
          28 155 -154 15 callsubr
          hintmask 11100100
          0 140 30 24 135 vhcurveto
          90 16 -70 85 -145 hhcurveto
          endchar
        </CharString>
        <CharString name="ellipsis">
          103 -10 150 hstem
          10 150 70 150 70 150 cntrmask 01110000
          109 -23 callsubr
          220 hmoveto
          -40 -41 -102 callsubr
          -29 35 -40 hhcurveto
          220 hmoveto
          -40 -41 -102 callsubr
          -29 35 -40 hhcurveto
          endchar
        </CharString>
        <CharString name="emacron">
          -54 callsubr
          60 38 callgsubr
          -65 callgsubr
          hintmask 11101100
          -107 callgsubr
          hintmask 00010000
          -45 670 -79 callsubr
        </CharString>
        <CharString name="emdash">
          183 240 100 hstem
          727 240 rmoveto
          17 100 rlineto
          -680 35 callgsubr
        </CharString>
        <CharString name="endash">
          -27 240 100 hstem
          517 240 rmoveto
          17 100 rlineto
          -470 35 callgsubr
        </CharString>
        <CharString name="eogonek">
          -37 -37 callgsubr
          -60 callsubr
          hstemhm
          15 140 0 8 callgsubr
          -30 140 hintmask 0011110010000000
          -107 callgsubr
          hintmask 1000001000000000
          1 -105 -44 callsubr
          hintmask 0100000100000000
          -99 callsubr
          hintmask 1000001000000000
          -39 callsubr
        </CharString>
        <CharString name="equal">
          -47 185 100 91 100 hstem
          482 185 rmoveto
          18 100 rlineto
          -440 hlineto
          -18 -100 rlineto
          474 191 rmoveto
          17 100 rlineto
          -440 35 callgsubr
        </CharString>
        <CharString name="eth">
          -12 -10 90 285 95 270 -20 hstemhm
          10 140 180 140 -115 115 hintmask 11110100
          272 525 rmoveto
          79 -35 34 59 38 -34 14 -49 -12 -66 rlinecurve
          35 -24 -45 25 -60 hhcurveto
          -120 -100 -85 -150 -27 hvcurveto
          -150 -26 70 -85 145 hhcurveto
          145 100 85 150 26 hvcurveto
          18 100 27 157 -29 93 -91 56 rlinecurve
          38 64 -79 35 -37 -63 -15 5 -15 4 -17 4 rlinecurve
          -62 15 -35 -85 68 -14 10 -2 10 -3 9 -3 rlinecurve
          -5 -223 rmoveto
          hintmask 11111000
          50 33 -40 -100 -18 hvcurveto
          -105 -18 -47 -40 -50 hhcurveto
          -50 -33 40 105 18 hvcurveto
          100 18 47 40 50 hhcurveto
          endchar
        </CharString>
        <CharString name="exclam">
          -267 -10 150 560 -20 hstem
          50 -56 callgsubr
          95 200 rmoveto
          120 hlineto
          108 -30 callgsubr
          -19 callgsubr
          -19 -560 -94 callgsubr
          endchar
        </CharString>
        <CharString name="exclamdown">
          -267 -179 -21 560 150 hstem
          50 -56 callgsubr
          4 -200 rmoveto
          160 hlineto
          68 -30 callgsubr
          -120 hlineto
          71 60 rmoveto
          40 -15 callsubr
          7 hvcurveto
          40 7 -29 35 -40 hhcurveto
          -40 -41 43 callgsubr
          endchar
        </CharString>
        <CharString name="f">
          -192 9 callsubr
          90 120 90 hstem
          50 -56 callgsubr
          370 710 rmoveto
          -125 -83 -70 -100 -17 hvcurveto
          -7 -40 rlineto
          -55 -59 callsubr
          55 hlineto
          13 callsubr
          72 410 rlineto
          125 -84 callsubr
          -125 hlineto
          7 40 rlineto
          50 9 35 30 35 hhcurveto
          45 33 -40 -97 callsubr
          -61 50 -80 vhcurveto
          endchar
        </CharString>
        <CharString name="five">
          -10 90 270 90 180 80 hstem
          40 140 -2 callgsubr
          213 -10 rmoveto
          180 100 85 140 24 hvcurveto
          140 25 -70 85 -175 hhcurveto
          -40 hlineto
          32 180 rlineto
          264 hlineto
          14 80 rlineto
          -404 hlineto
          -55 -309 32 -41 rlineto
          126 hlineto
          90 37 -45 -90 -16 hvcurveto
          -90 -15 -53 -45 -90 hhcurveto
          -95 -34 callgsubr
          135 vhcurveto
          endchar
        </CharString>
        <CharString name="florin">
          -130 -200 90 520 90 120 90 hstem
          46 -30 rmoveto
          -55 -14 -32 -25 -39 hhcurveto
          -30 -18 25 -81 callsubr
          -57 -85 rlineto
          0 41 -30 60 124 89 70 100 26 vhcurveto
          116 440 rlineto
          125 hlineto
          24 90 rlineto
          -125 hlineto
          11 40 rlineto
          50 13 38 30 35 hhcurveto
          45 29 -40 0 hvcurveto
          10 hlineto
          66 80 rlineto
          0 -56 50 -80 -125 -88 -70 -100 -27 vhcurveto
          -11 -40 rlineto
          -55 hlineto
          -24 -90 rlineto
          55 hlineto
          endchar
        </CharString>
        <CharString name="four">
          3 -69 callgsubr
          hstem
          305 -56 callgsubr
          489 250 rmoveto
          79 450 rlineto
          -130 hlineto
          -409 -450 -16 -90 rlineto
          320 hlineto
          -28 -160 rlineto
          140 hlineto
          28 160 rlineto
          70 -84 callsubr
          -210 hmoveto
          -180 hlineto
          192 210 rlineto
          24 27 17 33 0 vvcurveto
          4 hlineto
          0 -15 -30 -5 -30 vhcurveto
          endchar
        </CharString>
        <CharString name="g">
          3 37 callgsubr
          hstemhm
          -51 callsubr
          170 140 hintmask 11101100
          344 -73 callgsubr
          hintmask 11011100
          -33 callgsubr
          hintmask 11101100
          -85 callsubr
          endchar
        </CharString>
        <CharString name="gbreve">
          33 30 callsubr
          -17 callsubr
          -62 callgsubr
          -63 -11 callgsubr
          -87 140 hintmask 1110001001000000
          374 -73 callgsubr
          hintmask 1101001001000000
          -33 callgsubr
          hintmask 1110001001000000
          -85 callsubr
          hintmask 1101001001000000
          hintmask 0000100110000000
          -100 640 rmoveto
          hintmask 0000010110000000
          -30 -17 -93 callsubr
          hintmask 0000100110000000
          -25 callgsubr
        </CharString>
        <CharString name="gcommaaccent">
          3 30 callsubr
          20 199 21 hstemhm
          -51 callsubr
          146 130 -106 140 hintmask 1110001010000000
          344 -73 callgsubr
          hintmask 1101001010000000
          -33 callgsubr
          hintmask 1110001010000000
          -85 callsubr
          hintmask 1101001010000000
          hintmask 0000110100000000
          -19 635 rmoveto
          32 5 -21 28 -43 hhcurveto
          8 45 61 36 0 vvcurveto
          -23 34 rlineto
          0 -94 -50 -21 -115 vhcurveto
          -47 -8 23 -28 42 hhcurveto
          32 33 28 37 6 hvcurveto
          endchar
        </CharString>
        <CharString name="germandbls">
          63 -10 90 -59 -51 callgsubr
          140 90 hstemhm
          -5 195 10 callgsubr
          70 130 -90 90 -90 140 -5 140 hintmask 1011100101000000
          364 80 rmoveto
          -40 -21 25 -81 callsubr
          -50 -85 rlineto
          0 45 -30 70 140 88 75 105 18 vhcurveto
          27 150 -183 10 16 90 rrcurveto
          hintmask 1011010010000000
          8 50 56 30 10 60 rrcurveto
          75 13 -61 75 -130 hhcurveto
          -110 -89 -75 -85 -15 hvcurveto
          -8 -50 rlineto
          hintmask 1011101001000000
          -55 -59 callsubr
          hintmask 0111010101000000
          55 hlineto
          13 callsubr
          96 550 rlineto
          45 8 30 25 30 hhcurveto
          30 20 -25 -35 -6 hvcurveto
          hintmask 1011101001000000
          -9 -50 -45 -30 -10 -60 -25 -140 173 -10 -18 -100 rrcurveto
          -60 -10 -35 -30 -55 hhcurveto
          endchar
        </CharString>
        <CharString name="grave">
          -357 550 150 hstem
          108 700 -83 callgsubr
        </CharString>
        <CharString name="greater">
          -102 -66 callsubr
          hstem
          98 500 rmoveto
          -21 -120 227 -130 -273 -130 -21 -120 437 210 14 80 rlineto
          endchar
        </CharString>
        <CharString name="guillemotleft">
          -37 16 -21 510 -20 hstem
          254 250 rmoveto
          148 -210 93 75 -91 135 138 135 -66 75 rlineto
          -297 -210 rmoveto
          187 180 -67 75 -270 -255 180 -255 94 75 rlineto
          endchar
        </CharString>
        <CharString name="guillemotright">
          -37 16 -21 510 -20 hstem
          156 460 rmoveto
          -94 -75 92 -135 -139 -135 67 -75 222 210 rlineto
          -113 -180 rmoveto
          68 -75 270 255 -180 255 -95 -75 125 -180 rlineto
          endchar
        </CharString>
        <CharString name="guilsinglleft">
          -217 71 -21 420 -20 hstem
          20 260 rmoveto
          153 -210 -2 callsubr
          -153 210 227 210 -36 callgsubr
          endchar
        </CharString>
        <CharString name="guilsinglright">
          -217 71 -21 420 -20 hstem
          207 470 rmoveto
          -150 hlineto
          153 -210 -227 -210 -2 callsubr
          227 210 rlineto
          endchar
        </CharString>
        <CharString name="h">
          18 21 -21 415 95 190 -20 hstem
          -49 callsubr
          vstem
          208 10 callsubr
          -47 -40 -116 -660 rlineto
          140 hlineto
          62 355 rlineto
          -7 callgsubr
          38 callsubr
          vhcurveto
          -72 callsubr
          -120 hhcurveto
          -70 -48 -45 0 hvcurveto
          42 235 rlineto
          endchar
        </CharString>
        <CharString name="hbar">
          18 21 41 callsubr
          11 callgsubr
          -2 callgsubr
          83 -74 callgsubr
        </CharString>
        <CharString name="hungarumlaut">
          -227 550 150 hstem
          153 10 callsubr
          -42 callsubr
          45 hmoveto
          -42 callsubr
          endchar
        </CharString>
        <CharString name="hyphen">
          -107 280 100 hstem
          444 24 callgsubr
        </CharString>
        <CharString name="i">
          -277 -66 callsubr
          85 150 hstem
          45 -56 callgsubr
          133 -87 callgsubr
          -32 215 -22 callsubr
        </CharString>
        <CharString name="iacute">
          -275 -66 callsubr
          70 -6 callsubr
          -62 callgsubr
          hintmask 11010000
          133 17 callgsubr
          -43 200 -101 callgsubr
        </CharString>
        <CharString name="icircumflex">
          -267 -66 callsubr
          101 -64 callsubr
          50 6 callsubr
          -29 callsubr
          hintmask 00110000
          -86 194 -98 callgsubr
        </CharString>
        <CharString name="idieresis">
          -257 -66 callsubr
          90 140 hstemhm
          -45 140 -40 140 -45 6 callsubr
          143 -87 callgsubr
          hintmask 00110100
          -133 210 rmoveto
          -107 callsubr
        </CharString>
        <CharString name="igrave">
          -274 -66 callsubr
          70 -6 callsubr
          48 140 hintmask 11010000
          136 17 callgsubr
          -163 200 -83 callgsubr
        </CharString>
        <CharString name="ij">
          -22 -200 90 131 -21 410 90 65 150 hstem
          -62 callgsubr
          115 -56 callgsubr
          215 -110 rmoveto
          -30 -20 25 -81 callsubr
          -50 -85 rlineto
          0 44 -30 60 125 39 callgsubr
          94 530 rlineto
          -395 hlineto
          -92 callsubr
          72 410 rlineto
          115 hlineto
          -78 -440 rlineto
          -55 -9 -30 -25 -40 hhcurveto
          281 825 rmoveto
          -40 -42 -102 callsubr
          -28 35 -40 hhcurveto
          -255 hmoveto
          -40 -42 -102 callsubr
          -28 35 -40 hhcurveto
          endchar
        </CharString>
        <CharString name="imacron">
          -267 -66 callsubr
          80 90 hstemhm
          11 callgsubr
          hintmask 11010000
          138 17 callgsubr
          -188 150 -79 callsubr
        </CharString>
        <CharString name="iogonek">
          -267 -37 callgsubr
          -66 callsubr
          85 -6 callsubr
          30 8 callgsubr
          -170 140 hintmask 00111001
          -29 callsubr
          -32 215 rmoveto
          -40 -42 -102 callsubr
          -28 35 -40 hhcurveto
          hintmask 10000100
          -107 -830 -44 callsubr
          hintmask 01000010
          -99 callsubr
          hintmask 10000100
          -39 callsubr
        </CharString>
        <CharString name="itilde">
          -272 -66 callsubr
          105 -17 callgsubr
          11 callgsubr
          hintmask 11000100
          -29 callsubr
          hintmask 00010000
          62 215 -95 callsubr
        </CharString>
        <CharString name="j">
          -257 -200 90 610 -20 85 150 hstem
          65 -56 callgsubr
          -20 -110 rmoveto
          -29 -20 25 -81 callsubr
          -50 -85 rlineto
          0 44 -30 60 124 39 callgsubr
          94 530 rlineto
          -91 callsubr
          -94 -530 rlineto
          -55 -9 -30 -25 -40 hhcurveto
          281 825 -22 callsubr
        </CharString>
        <CharString name="jcircumflex">
          -259 -200 90 610 -20 91 -64 callsubr
          65 6 callsubr
          -20 -110 rmoveto
          -29 -20 25 -81 callsubr
          -50 -85 rlineto
          0 44 -30 60 124 39 callgsubr
          94 530 rlineto
          -91 callsubr
          -94 -530 rlineto
          -55 -9 -30 -25 -40 hhcurveto
          hintmask 00110000
          219 794 -98 callgsubr
        </CharString>
        <CharString name="k">
          -47 -66 callsubr
          220 39 callsubr
          vstem
          308 10 callsubr
          -23 callgsubr
          -116 -660 -77 callgsubr
          endchar
        </CharString>
        <CharString name="kcedilla">
          -47 -20 callgsubr
          1 36 callsubr
          25 170 -85 85 hintmask 0001111000000000
          308 10 callsubr
          -23 callgsubr
          -116 -660 -77 callgsubr
          hintmask 1010000100000000
          53 -265 -33 callsubr
          hintmask 1100000010000000
          -96 callsubr
        </CharString>
        <CharString name="kcommaaccent">
          -47 -229 -31 callsubr
          51 36 callsubr
          2 130 hintmask 00111100
          308 10 callsubr
          -23 callgsubr
          -116 -660 -77 callgsubr
          hintmask 11000010
          -61 -360 -105 callsubr
        </CharString>
        <CharString name="kgreenlandic">
          -47 21 -21 500 39 callsubr
          vstem
          273 500 rmoveto
          -23 callgsubr
          -81 -460 -77 callgsubr
          endchar
        </CharString>
        <CharString name="l">
          -277 21 -21 700 39 callsubr
          vstem
          45 -85 callgsubr
          -23 callgsubr
          rlineto
          endchar
        </CharString>
        <CharString name="lacute">
          -275 18 callsubr
          -62 callgsubr
          hintmask 11010000
          45 -85 callgsubr
          -23 callgsubr
          rlineto
          hintmask 00100000
          114 240 -101 callgsubr
        </CharString>
        <CharString name="lcaron">
          -147 21 -21 481 -31 callsubr
          hstemhm
          -62 callgsubr
          60 130 hintmask 01101000
          356 635 rmoveto
          -32 -5 22 -28 43 hhcurveto
          -8 -45 -61 11 callsubr
          24 -42 callgsubr
          hintmask 10110000
          -311 -635 rmoveto
          140 6 callgsubr
          -23 callgsubr
          rlineto
          endchar
        </CharString>
        <CharString name="lcommaaccent">
          -277 -269 -31 callsubr
          91 -58 callgsubr
          hstemhm
          42 130 -127 140 hintmask 00110100
          45 -85 callgsubr
          -23 callgsubr
          rlineto
          hintmask 11001000
          -132 -775 -105 callsubr
        </CharString>
        <CharString name="ldot">
          -142 21 -21 275 150 275 -20 hstemhm
          -62 callgsubr
          45 150 hintmask 10110000
          45 -85 callgsubr
          -23 callgsubr
          rlineto
          hintmask 01001000
          218 -235 -94 callgsubr
          endchar
        </CharString>
        <CharString name="less">
          -102 -66 callsubr
          hstem
          46 290 rmoveto
          -14 -80 363 -210 21 120 -227 130 273 130 21 120 rlineto
          endchar
        </CharString>
        <CharString name="logicalnot">
          -57 230 190 -100 100 hstemhm
          330 110 hintmask 10100000
          370 230 rmoveto
          110 hlineto
          34 190 rlineto
          -430 hlineto
          hintmask 01100000
          -18 -100 rlineto
          320 hlineto
          endchar
        </CharString>
        <CharString name="lslash">
          -232 -75 callgsubr
          hstemhm
          20 190 10 callgsubr
          -140 210 hintmask 11100000
          57 210 rmoveto
          hintmask 11010000
          57 40 -44 -250 rlineto
          140 hlineto
          64 363 rlineto
          hintmask 11001000
          80 57 22 130 rlineto
          hintmask 11100000
          -80 -57 37 207 rlineto
          -100 hlineto
          hintmask 11010000
          -47 -40 -49 -280 rlineto
          hintmask 11100000
          -58 -40 rlineto
          endchar
        </CharString>
        <CharString name="m">
          278 13 callgsubr
          hstemhm
          -62 callgsubr
          140 140 140 140 cntrmask 00011100
          hintmask 11011100
          492 440 rmoveto
          0 -18 70 -100 -80 -57 -70 0 vhcurveto
          -5 hlineto
          hintmask 10111100
          1 60 rlineto
          -100 hlineto
          -92 callsubr
          62 355 rlineto
          hintmask 11011100
          0 36 60 50 25 callsubr
          64 365 rlineto
          0 39 50 45 35 24 -30 -65 -11 vhcurveto
          -72 callsubr
          -110 hhcurveto
          -95 -67 -70 0 hvcurveto
          endchar
        </CharString>
        <CharString name="macron">
          -247 570 90 hstem
          101 660 -79 callsubr
        </CharString>
        <CharString name="mu">
          23 14 callsubr
          95 -64 -51 callgsubr
          hstemhm
          -49 callsubr
          hintmask 11011100
          9 -200 rmoveto
          100 hlineto
          47 40 32 180 rlineto
          0 25 -30 40 80 47 70 0 vhcurveto
          5 hlineto
          hintmask 10111100
          -84 callgsubr
          hintmask 11011100
          0 -41 -60 -55 -45 -24 30 65 11 vhcurveto
          57 1 callsubr
          -91 callsubr
          endchar
        </CharString>
        <CharString name="multiply">
          -117 166 -21 370 -20 hstem
          323 330 rmoveto
          135 115 -58 70 -135 -115 -95 115 -82 -70 95 -115 -136 -115 58 -70 135 115 95 -115 82 70 rlineto
          endchar
        </CharString>
        <CharString name="n">
          28 callgsubr
          hstemhm
          -49 callsubr
          hintmask 11011000
          -90 callgsubr
          hintmask 10111000
          1 60 rlineto
          -100 hlineto
          -92 callsubr
          62 355 rlineto
          hintmask 11011000
          -16 callgsubr
          endchar
        </CharString>
        <CharString name="nacute">
          28 callgsubr
          70 -6 callsubr
          -49 callsubr
          hintmask 11001100
          -90 callgsubr
          hintmask 10101100
          1 60 rlineto
          -100 hlineto
          -92 callsubr
          62 355 rlineto
          hintmask 11001100
          -16 callgsubr
          hintmask 00010000
          35 285 -101 callgsubr
        </CharString>
        <CharString name="ncaron">
          28 callgsubr
          107 -64 callsubr
          -49 callsubr
          hintmask 11000110
          -90 callgsubr
          hintmask 10100110
          1 60 rlineto
          -100 hlineto
          -92 callsubr
          62 355 rlineto
          hintmask 11000110
          -16 callgsubr
          hintmask 00011000
          68 151 -99 callgsubr
        </CharString>
        <CharString name="ncommaaccent">
          18 -229 -31 callsubr
          51 32 callsubr
          hstemhm
          -62 callgsubr
          17 130 13 140 hintmask 00110101
          -90 callgsubr
          hintmask 00101101
          1 60 rlineto
          -100 hlineto
          -92 callsubr
          62 355 rlineto
          hintmask 00110101
          -16 callgsubr
          hintmask 11000010
          -154 -490 -105 callsubr
        </CharString>
        <CharString name="nine">
          3 -10 90 16 callgsubr
          290 90 hstem
          10 -21 callgsubr
          318 330 rmoveto
          -65 -37 45 95 16 hvcurveto
          105 19 53 45 50 hhcurveto
          60 37 -45 -105 -19 hvcurveto
          -19 -110 rlineto
          0 -45 -30 -50 vhcurveto
          -79 -250 rmoveto
          -85 -38 45 -81 callsubr
          -60 -36 callsubr
          62 -55 125 155 117 100 180 32 vhcurveto
          -31 callgsubr
          155 28 -70 85 -161 hhcurveto
          -149 -100 -85 -155 -28 hvcurveto
          -145 -25 70 -85 140 hhcurveto
          70 50 30 0 hvcurveto
          -140 -25 -58 -50 -75 hhcurveto
          endchar
        </CharString>
        <CharString name="ntilde">
          28 callgsubr
          95 -17 callgsubr
          -49 callsubr
          hintmask 11000011
          -90 callgsubr
          hintmask 10100011
          1 60 rlineto
          -100 hlineto
          -92 callsubr
          62 355 rlineto
          hintmask 11000011
          -16 callgsubr
          hintmask 00001000
          147 290 -48 callsubr
        </CharString>
        <CharString name="numbersign">
          110 21 -21 170 90 180 90 170 -20 hstem
          470 10 callsubr
          -130 hlineto
          -75 -170 rlineto
          -125 -59 callsubr
          105 hlineto
          -77 -180 rlineto
          -117 -59 callsubr
          92 31 callgsubr
          100 31 callgsubr
          128 -84 callsubr
          -103 hlineto
          77 180 rlineto
          115 -84 callsubr
          -95 hlineto
          75 170 rlineto
          -130 hlineto
          -75 -170 rlineto
          -100 hlineto
          -36 -90 rmoveto
          100 hlineto
          -77 -180 rlineto
          -100 hlineto
          endchar
        </CharString>
        <CharString name="o">
          -10 90 340 44 callgsubr
          -106 callgsubr
          endchar
        </CharString>
        <CharString name="oacute">
          -52 callsubr
          40 -9 callsubr
          180 140 hintmask 11011000
          -106 callgsubr
          hintmask 00100000
          -159 450 -101 callgsubr
        </CharString>
        <CharString name="ocircumflex">
          -52 callsubr
          71 -18 callgsubr
          180 19 callgsubr
          -106 callgsubr
          hintmask 00110000
          -202 444 -98 callgsubr
        </CharString>
        <CharString name="odieresis">
          -10 90 340 28 callsubr
          -80 -32 callsubr
          -75 140 hintmask 11010010
          -106 callgsubr
          hintmask 00101100
          -249 460 rmoveto
          -107 callsubr
        </CharString>
        <CharString name="oe">
          288 -60 callsubr
          hstem
          -51 callsubr
          180 145 -65 callgsubr
          cntrmask 11100000
          588 -10 rmoveto
          100 79 50 -89 callgsubr
          -47 -40 -65 -80 -33 40 85 15 vhcurveto
          270 hlineto
          35 30 4 25 21 callsubr
          29 -41 callsubr
          -60 -59 -25 -45 -48 hvcurveto
          45 -32 -56 25 -60 hhcurveto
          -145 -100 -85 -175 -30 hvcurveto
          -175 -31 70 -85 145 hhcurveto
          70 54 25 45 48 hvcurveto
          -45 32 61 -25 80 hhcurveto
          -209 260 rmoveto
          -130 -23 -47 -40 -50 hhcurveto
          -50 -33 40 130 23 hvcurveto
          130 23 47 40 50 hhcurveto
          50 33 -40 -130 -23 hvcurveto
          255 170 rmoveto
          40 33 -40 -85 -15 hvcurveto
          -19 callgsubr
          85 15 47 40 40 hhcurveto
          endchar
        </CharString>
        <CharString name="ogonek">
          -347 -37 callgsubr
          hstemhm
          -15 8 callgsubr
          hintmask 10100000
          94 -115 -44 callsubr
          hintmask 01010000
          -99 callsubr
          hintmask 10100000
          -39 callsubr
        </CharString>
        <CharString name="ograve">
          -52 callsubr
          40 -9 callsubr
          180 140 hintmask 11011000
          -106 callgsubr
          hintmask 00100000
          -279 450 -83 callgsubr
        </CharString>
        <CharString name="ohungarumlaut">
          -52 callsubr
          40 -9 callsubr
          180 140 hintmask 11011000
          -106 callgsubr
          hintmask 00100000
          -229 450 rmoveto
          -42 callsubr
          45 hmoveto
          -42 callsubr
          endchar
        </CharString>
        <CharString name="omacron">
          -52 callsubr
          60 38 callgsubr
          180 140 hintmask 11011000
          -106 callgsubr
          hintmask 00100000
          -303 410 -79 callsubr
        </CharString>
        <CharString name="one">
          -147 0 90 610 -20 hstem
          125 -56 callgsubr
          140 90 rmoveto
          -100 hlineto
          -15 -90 rlineto
          340 hlineto
          15 90 rlineto
          -100 hlineto
          108 610 rlineto
          -130 hlineto
          -166 -120 42 -75 89 55 rlineto
          endchar
        </CharString>
        <CharString name="onehalf">
          248 0 80 190 80 10 80 260 -20 hstem
          85 120 245 120 45 120 vstem
          80 -44 callgsubr
          -511 -260 -38 callsubr
          -100 hlineto
          -119 -80 26 -50 54 25 rlineto
          462 -245 rmoveto
          -80 -65 -45 0 hvcurveto
          25 -65 rlineto
          10 hlineto
          0 41 30 35 30 12 -15 -20 -3 vhcurveto
          -9 -50 -165 0 -22 -125 -10 -60 rcurveline
          285 hlineto
          14 80 rlineto
          -165 hlineto
          8 50 165 0 19 105 rrcurveto
          65 11 -41 50 -95 hhcurveto
          endchar
        </CharString>
        <CharString name="onequarter">
          233 21 -21 60 80 220 80 260 -20 hstem
          85 120 360 120 vstem
          80 -50 callsubr
          -592 300 -38 callsubr
          -100 hlineto
          -119 -80 26 -50 54 25 rlineto
          396 -391 -4 callgsubr
          endchar
        </CharString>
        <CharString name="onesuperior">
          -242 360 80 260 -20 hstem
          80 120 vstem
          157 440 -38 callsubr
          -110 hlineto
          -109 -80 26 -50 54 25 rlineto
          endchar
        </CharString>
        <CharString name="ordfeminine">
          -177 350 80 60 75 70 75 hstem
          0 115 85 120 vstem
          299 565 rmoveto
          -40 hlineto
          -115 -53 -45 -65 -11 hvcurveto
          -60 -11 37 -45 75 hhcurveto
          65 38 45 0 hvcurveto
          5 -35 94 hlineto
          39 220 rlineto
          80 14 -41 50 -110 hhcurveto
          -80 -65 -45 0 hvcurveto
          25 -60 rlineto
          10 hlineto
          0 41 30 35 40 17 -20 -35 -6 vhcurveto
          -22 -125 rmoveto
          0 -25 -25 -25 -25 -13 10 20 4 vhcurveto
          20 3 17 10 30 hhcurveto
          40 hlineto
          endchar
        </CharString>
        <CharString name="ordmasculine">
          -137 350 80 200 80 hstem
          10 5 callsubr
          vstem
          246 -6 callgsubr
          100 88 75 105 19 hvcurveto
          -53 callsubr
          -56 callsubr
          endchar
        </CharString>
        <CharString name="oslash">
          -8 callgsubr
          420 90 -10 -20 hstemhm
          -51 callsubr
          180 140 hintmask 01101100
          15 hmoveto
          95 hlineto
          14 17 rlineto
          hintmask 10011100
          -18 31 40 -9 48 hhcurveto
          145 -48 callgsubr
          hvcurveto
          14 79 -8 60 -24 43 61 68 rcurveline
          -94 hlineto
          -17 -18 rlineto
          hintmask 01101100
          19 -30 -40 9 -47 hhcurveto
          -145 -100 -85 -175 -30 hvcurveto
          -14 -79 6 -60 24 -43 rrcurveto
          304 182 rmoveto
          hintmask 10101100
          -130 -23 -47 -40 -50 hhcurveto
          -22 -19 7 20 -12 hvcurveto
          179 198 -1 -17 -2 -18 -3 -20 rlinecurve
          -180 hmoveto
          130 23 47 40 50 hhcurveto
          22 17 -8 -19 13 hvcurveto
          -180 -198 1 16 3 18 4 21 rlinecurve
          endchar
        </CharString>
        <CharString name="otilde">
          -52 callsubr
          55 -17 callgsubr
          15 140 180 140 hintmask 11000110
          -106 callgsubr
          hintmask 00010000
          -58 445 -95 callsubr
        </CharString>
        <CharString name="p">
          -82 callgsubr
        </CharString>
        <CharString name="paragraph">
          23 -179 -21 810 90 hstem
          195 120 50 120 vstem
          159 -200 rmoveto
          120 hlineto
          143 810 rlineto
          50 hlineto
          -143 -810 rlineto
          120 hlineto
          143 810 rlineto
          60 -84 callsubr
          -350 hlineto
          -120 -106 -90 -135 -24 hvcurveto
          -135 -24 75 -90 120 hhcurveto
          endchar
        </CharString>
        <CharString name="parenleft">
          -237 -164 -21 930 -20 hstem
          30 -56 callgsubr
          219 280 rmoveto
          32 180 67 125 98 105 -45 55 rcurveline
          -144 -105 -115 -170 -33 -190 -34 -190 55 -170 107 -105 65 55 rcurveline
          -62 105 -23 125 32 180 rrcurveto
          endchar
        </CharString>
        <CharString name="parenright">
          -237 -164 -21 930 -20 hstem
          100 -56 callgsubr
          149 280 rmoveto
          -32 -180 -67 -125 -97 -105 44 -55 rcurveline
          143 105 115 170 34 190 33 190 -55 170 -106 105 -65 -55 rcurveline
          62 -105 23 -125 -32 -180 rrcurveto
          endchar
        </CharString>
        <CharString name="percent">
          293 -10 callgsubr
          110 5 callsubr
          hintmask 1010011111000000
          90 -44 callgsubr
          hintmask 0110101111000000
          -55 -710 rmoveto
          100 88 75 105 18 hvcurveto
          105 19 -62 75 -100 hhcurveto
          -100 -88 -75 -105 -19 hvcurveto
          -105 -18 62 -75 100 hhcurveto
          hintmask 1010101111000000
          14 80 rmoveto
          -30 -21 25 75 13 hvcurveto
          75 14 29 25 30 hhcurveto
          30 21 -25 -75 -14 hvcurveto
          -75 -13 -1 callsubr
          -411 280 rmoveto
          100 88 75 105 19 hvcurveto
          -53 callsubr
          hintmask 1001101111000000
          -56 callsubr
          endchar
        </CharString>
        <CharString name="period">
          -337 -10 150 hstem
          10 150 vstem
          109 -23 callsubr
          endchar
        </CharString>
        <CharString name="periodcentered">
          -257 275 150 hstem
          50 150 vstem
          199 425 -94 callgsubr
          endchar
        </CharString>
        <CharString name="perthousand">
          643 -10 callgsubr
          90 5 callsubr
          20 5 callsubr
          hintmask 1010011111110000
          90 -44 callgsubr
          hintmask 0110101111110000
          -75 -710 -58 callsubr
          -391 280 rmoveto
          100 88 75 105 19 hvcurveto
          -53 callsubr
          hintmask 0101101111110000
          -56 callsubr
          733 -440 -58 callsubr
          endchar
        </CharString>
        <CharString name="plus">
          -67 136 -21 165 100 165 -20 hstem
          170 100 vstem
          190 115 rmoveto
          100 hlineto
          29 165 -27 callgsubr
          endchar
        </CharString>
        <CharString name="plusminus">
          -57 75 100 125 100 165 -20 hstem
          175 100 vstem
          453 75 rmoveto
          17 100 rlineto
          -165 hlineto
          22 125 -27 callgsubr
          -22 -125 rlineto
          -165 35 callgsubr
        </CharString>
        <CharString name="q">
          3 14 callsubr
          90 335 95 -10 -28 callsubr
          hintmask 11101100
          344 -73 callgsubr
          hintmask 11011100
          -33 callgsubr
          hintmask 11101100
          0 -33 70 -90 -115 -100 -85 -175 -30 vhcurveto
          -175 -31 70 -85 125 hhcurveto
          60 45 30 0 hvcurveto
          -32 -180 33 -40 rlineto
          100 hlineto
          endchar
        </CharString>
        <CharString name="question">
          -67 -10 150 480 90 hstem
          105 140 45 -56 callgsubr
          194 -23 callsubr
          111 570 rmoveto
          -135 -34 callsubr
          95 80 33 -40 -50 -9 vhcurveto
          -23 -130 -185 0 -30 -170 -5 -30 rcurveline
          130 hlineto
          5 30 19 110 195 0 32 180 rlinecurve
          110 20 -66 80 -170 hhcurveto
          endchar
        </CharString>
        <CharString name="questiondown">
          -67 -210 90 480 150 hstem
          10 140 45 -56 callgsubr
          333 360 rmoveto
          40 -15 callsubr
          7 hvcurveto
          40 7 -29 35 -40 hhcurveto
          -40 -41 43 callgsubr
          -111 -570 rmoveto
          135 80 55 -89 callgsubr
          -53 -45 -95 -80 -33 40 50 9 vhcurveto
          23 130 185 0 30 170 5 30 rcurveline
          -130 hlineto
          -5 -30 -19 -110 -195 0 -32 -180 rlinecurve
          -110 -19 65 -80 170 hhcurveto
          endchar
        </CharString>
        <CharString name="quotedbl">
          -177 1 callgsubr
          157 -245 rmoveto
          85 hlineto
          68 245 rlineto
          -135 hlineto
          endchar
        </CharString>
        <CharString name="quotedblbase">
          -147 -114 2 callgsubr
          21 65 rmoveto
          hintmask 11011000
          -87 callsubr
          25 -54 callgsubr
          hintmask 11101000
          5 callgsubr
          190 hmoveto
          hintmask 11100100
          -87 callsubr
          25 -54 callgsubr
          hintmask 11101000
          5 callgsubr
          endchar
        </CharString>
        <CharString name="quotedblleft">
          -147 435 150 125 -20 hstemhm
          10 75 -75 150 40 75 -75 150 hintmask 11100100
          439 510 rmoveto
          hintmask 11101000
          -61 callgsubr
          hintmask 11010100
          35 -15 callsubr
          7 hvcurveto
          -190 hmoveto
          hintmask 11101000
          -61 callgsubr
          hintmask 11011000
          35 -15 callsubr
          7 hvcurveto
          endchar
        </CharString>
        <CharString name="quotedblright">
          -147 456 2 callgsubr
          121 635 rmoveto
          hintmask 11011000
          -87 callsubr
          26 -54 callgsubr
          hintmask 11101000
          -35 -41 -35 -40 -8 hvcurveto
          190 hmoveto
          hintmask 11100100
          -87 callsubr
          26 -54 callgsubr
          hintmask 11101000
          -35 -41 -35 -40 -8 hvcurveto
          endchar
        </CharString>
        <CharString name="quoteleft">
          -337 456 -21 275 -20 hstemhm
          10 75 -75 150 hintmask 11010000
          249 510 rmoveto
          hintmask 11100000
          -61 callgsubr
          hintmask 11010000
          35 -15 callsubr
          7 hvcurveto
          endchar
        </CharString>
        <CharString name="quoteright">
          -337 456 -21 275 -20 hstemhm
          10 150 -75 75 hintmask 11100000
          121 635 rmoveto
          hintmask 11010000
          -87 callsubr
          26 -54 callgsubr
          hintmask 11100000
          -35 -41 -35 -40 -8 hvcurveto
          endchar
        </CharString>
        <CharString name="quotesinglbase">
          -68 callsubr
        </CharString>
        <CharString name="quotesingle">
          -352 1 callgsubr
          endchar
        </CharString>
        <CharString name="r">
          -162 9 callsubr
          100 -10 -20 hstemhm
          -62 callgsubr
          hintmask 11010000
          342 -19 callsubr
          hintmask 10110000
          38 100 rlineto
          hintmask 11010000
          -27 callsubr
          hintmask 10110000
          1 60 rlineto
          -100 hlineto
          -92 callsubr
          61 350 rlineto
          hintmask 11010000
          -16 callgsubr
          endchar
        </CharString>
        <CharString name="racute">
          -162 9 callsubr
          100 -10 -20 70 -6 callsubr
          45 6 callsubr
          342 -19 callsubr
          hintmask 10101000
          38 100 rlineto
          hintmask 11001000
          -27 callsubr
          hintmask 10101000
          1 60 rlineto
          -100 hlineto
          -92 callsubr
          61 350 rlineto
          hintmask 11001000
          -16 callgsubr
          hintmask 00010000
          -27 290 -101 callgsubr
        </CharString>
        <CharString name="rcaron">
          -152 9 callsubr
          100 -10 -20 107 -64 callsubr
          0 callsubr
          hintmask 11000100
          352 -19 callsubr
          hintmask 10100100
          38 100 rlineto
          hintmask 11000100
          -27 callsubr
          hintmask 10100100
          1 60 rlineto
          -100 hlineto
          -92 callsubr
          61 350 rlineto
          hintmask 11000100
          -16 callgsubr
          hintmask 00011000
          7 156 -99 callgsubr
        </CharString>
        <CharString name="rcommaaccent">
          -162 -259 -31 callsubr
          81 -21 410 100 -10 -20 hstemhm
          44 130 -129 140 hintmask 00110010
          342 -19 callsubr
          hintmask 00101010
          38 100 rlineto
          hintmask 00110010
          -27 callsubr
          hintmask 00101010
          1 60 rlineto
          -100 hlineto
          -92 callsubr
          61 350 rlineto
          hintmask 00110010
          -16 callgsubr
          hintmask 11000100
          -311 -515 -105 callsubr
        </CharString>
        <CharString name="registered">
          353 -40 90 85 220 130 80 85 90 hstem
          15 120 130 120 112 118 9 callgsubr
          vstem
          364 565 rmoveto
          -76 -430 rlineto
          120 hlineto
          -12 callgsubr
          rlineto
          39 hlineto
          51 -140 rlineto
          130 hlineto
          -66 160 42 15 47 40 13 70 rlinecurve
          85 15 -50 60 -130 hhcurveto
          -14 -80 rmoveto
          50 18 -25 -3 callsubr
          -27 -25 -50 hhcurveto
          -40 hlineto
          23 130 rlineto
          -32 -435 rmoveto
          -170 -103 125 175 31 hvcurveto
          175 31 147 125 170 hhcurveto
          170 103 -125 -175 -31 hvcurveto
          -175 -31 -147 -125 -170 hhcurveto
          122 690 rmoveto
          -240 -206 -175 -215 -38 hvcurveto
          -215 -38 144 -175 240 hhcurveto
          240 206 175 215 38 hvcurveto
          215 38 -144 175 -240 hhcurveto
          endchar
        </CharString>
        <CharString name="ring">
          -317 545 65 80 65 hstem
          -15 75 70 75 vstem
          174 650 -97 callgsubr
        </CharString>
        <CharString name="s">
          -72 -52 callsubr
          hstem
          -51 callsubr
          135 -56 callgsubr
          314 -103 callgsubr
          endchar
        </CharString>
        <CharString name="sacute">
          -72 -52 callsubr
          40 -9 callsubr
          135 140 hintmask 11011000
          314 -103 callgsubr
          hintmask 00100000
          6 190 -101 callgsubr
        </CharString>
        <CharString name="scaron">
          -72 -52 callsubr
          77 -18 callgsubr
          135 19 callgsubr
          314 -103 callgsubr
          hintmask 00110000
          50 56 -99 callgsubr
        </CharString>
        <CharString name="scedilla">
          -72 -20 callgsubr
          -30 90 340 38 callgsubr
          17 170 -85 85 -52 140 hintmask 0001110010000000
          314 -103 callgsubr
          hintmask 1010001000000000
          -64 -490 -33 callsubr
          hintmask 1100000100000000
          -96 callsubr
        </CharString>
        <CharString name="scommaaccent">
          -82 -264 -31 callsubr
          55 -40 callsubr
          hstemhm
          10 140 -2 130 7 140 hintmask 00111010
          309 -103 callgsubr
          hintmask 11000100
          -174 -620 -105 callsubr
        </CharString>
        <CharString name="section">
          -210 90 740 90 hstemhm
          25 125 -125 140 -65 callgsubr
          -125 125 hintmask 11011000
          260 540 rmoveto
          45 8 41 35 55 hhcurveto
          80 42 -45 -97 callsubr
          -70 55 -115 -145 -89 -75 -105 -18 vhcurveto
          -16 -90 69 -35 0 vvcurveto
          0 -91 -35 -20 -110 vhcurveto
          -37 -210 316 30 -22 -120 rrcurveto
          -45 -7 -42 -35 -75 hhcurveto
          -75 -42 46 -81 callsubr
          -59 -36 callsubr
          70 -56 110 165 89 75 105 18 vhcurveto
          16 90 -69 15 callsubr
          0 91 35 20 110 vhcurveto
          37 210 -315 -30 21 120 rrcurveto
          6 -190 rmoveto
          hintmask 11100100
          0 129 -35 -14 -80 vhcurveto
          -12 -70 -57 -10 0 vvcurveto
          0 -129 35 14 80 vhcurveto
          12 70 57 10 0 vvcurveto
          endchar
        </CharString>
        <CharString name="semicolon">
          -337 -114 -21 146 -21 150 220 0 -6 callsubr
          10 150 -75 75 hintmask 11101000
          21 65 rmoveto
          hintmask 11100100
          -87 callsubr
          25 -54 callgsubr
          hintmask 11011000
          5 callgsubr
          hintmask 11010100
          153 445 rmoveto
          hintmask 11011000
          -40 -41 -35 -40 -7 hvcurveto
          hintmask 11010100
          -40 -7 -93 callgsubr
          7 hvcurveto
          40 7 -29 35 -40 hhcurveto
          endchar
        </CharString>
        <CharString name="seven">
          -77 21 -21 610 90 hstem
          125 -56 callgsubr
          125 hmoveto
          140 hlineto
          15 90 41 230 122 180 109 110 rlinecurve
          16 90 rlineto
          -460 -59 callsubr
          320 hlineto
          -109 -110 -122 -180 -41 -230 rrcurveto
          endchar
        </CharString>
        <CharString name="six">
          3 -10 90 290 90 16 callgsubr
          hstem
          20 -21 callgsubr
          315 370 rmoveto
          65 37 -45 -95 -17 hvcurveto
          -105 -18 -53 -45 -50 hhcurveto
          -60 -37 45 105 18 hvcurveto
          19 110 rlineto
          0 46 30 50 vhcurveto
          79 250 rmoveto
          85 38 -45 -97 callsubr
          -61 55 -125 -155 -118 -100 -180 -32 vhcurveto
          -35 -200 rlineto
          -155 -27 70 -85 161 hhcurveto
          149 100 85 155 27 hvcurveto
          145 26 -70 85 -140 hhcurveto
          -70 -51 -30 0 hvcurveto
          140 25 59 50 75 hhcurveto
          endchar
        </CharString>
        <CharString name="slash">
          -107 -75 callgsubr
          hstem
          -25 hmoveto
          140 hlineto
          433 -55 callsubr
          -91 callsubr
          endchar
        </CharString>
        <CharString name="space">
          -257 endchar
        </CharString>
        <CharString name="sterling">
          -52 0 90 230 90 210 90 hstem
          85 -56 callgsubr
          405 710 rmoveto
          -120 -89 -75 -95 -16 hvcurveto
          -23 -130 rlineto
          -55 -59 callsubr
          55 hlineto
          -14 -80 rlineto
          -20 -110 -82 -40 0 vvcurveto
          -15 -90 rlineto
          460 hlineto
          15 90 rlineto
          -320 hlineto
          0 82 40 20 110 vhcurveto
          14 80 rlineto
          125 -84 callsubr
          -125 hlineto
          23 130 rlineto
          50 9 30 30 40 hhcurveto
          65 -94 callsubr
          -105 vhcurveto
          endchar
        </CharString>
        <CharString name="t">
          -142 -10 90 330 90 120 -20 hstem
          55 -56 callgsubr
          264 80 rmoveto
          -30 -21 25 55 10 hvcurveto
          -7 callsubr
          115 -84 callsubr
          -115 hlineto
          21 120 rlineto
          -55 hlineto
          -177 -150 -10 -60 rlineto
          65 hlineto
          -44 -250 rlineto
          -100 -18 58 -70 115 hhcurveto
          80 79 50 -89 callgsubr
          -47 -40 -45 vhcurveto
          endchar
        </CharString>
        <CharString name="tcaron">
          -47 -10 90 321 -21 30 90 120 -20 hstemhm
          0 callsubr
          150 130 hintmask 01010100
          442 555 rmoveto
          -32 -5 22 -28 43 hhcurveto
          -8 -45 -62 11 callsubr
          25 -42 callgsubr
          hintmask 10111000
          -178 -475 rmoveto
          -30 -21 25 55 10 hvcurveto
          -7 callsubr
          115 -84 callsubr
          -115 hlineto
          21 120 rlineto
          -55 hlineto
          -177 -150 -10 -60 rlineto
          65 hlineto
          -44 -250 rlineto
          -100 -18 58 -70 115 hhcurveto
          80 79 50 -89 callgsubr
          -47 -40 -45 vhcurveto
          endchar
        </CharString>
        <CharString name="tcommaaccent">
          -142 -269 -31 callsubr
          60 90 330 90 120 -20 hstemhm
          0 callsubr
          -43 130 hintmask 00111100
          264 80 rmoveto
          -30 -21 25 55 10 hvcurveto
          -7 callsubr
          115 -84 callsubr
          -115 hlineto
          21 120 rlineto
          -55 hlineto
          -177 -150 -10 -60 rlineto
          65 hlineto
          -44 -250 rlineto
          -100 -18 58 -70 115 hhcurveto
          80 79 50 -89 callgsubr
          -47 -40 -45 vhcurveto
          hintmask 11000010
          -125 -195 -105 callsubr
        </CharString>
        <CharString name="thorn">
          3 14 callsubr
          -40 callsubr
          190 -20 hstem
          45 -9 callgsubr
          vstem
          308 10 callsubr
          -23 callgsubr
          -152 -860 rlineto
          140 hlineto
          39 220 rlineto
          0 35 -30 60 125 -48 callgsubr
          vhcurveto
          175 30 -70 85 -125 hhcurveto
          -60 -45 -30 0 hvcurveto
          5 -400 rmoveto
          -45 -25 30 0 hvcurveto
          49 280 rlineto
          0 36 30 45 55 33 -40 -130 -23 vhcurveto
          -130 -23 -47 -40 -55 hhcurveto
          endchar
        </CharString>
        <CharString name="three">
          -37 -10 90 250 90 190 90 hstem
          320 -56 callgsubr
          189 80 rmoveto
          -95 -34 callgsubr
          135 190 100 85 125 22 vhcurveto
          125 22 -68 95 -165 hhcurveto
          253 190 16 90 rlineto
          -435 -59 callsubr
          275 hlineto
          -243 -190 -16 -90 rlineto
          115 hlineto
          100 37 -45 -85 -15 hvcurveto
          -75 -13 -53 -45 -100 hhcurveto
          endchar
        </CharString>
        <CharString name="threequarters">
          219 21 -21 60 80 210 43 callsubr
          16 44 callsubr
          260 120 hintmask 1110100101000000
          66 -50 callsubr
          -169 64 -4 callgsubr
          -307 210 rmoveto
          99 65 55 55 10 hvcurveto
          hintmask 1101011001000000
          9 55 -37 45 -74 5 104 50 rcurveline
          hintmask 1110101001000000
          15 85 rlineto
          -250 hlineto
          hintmask 1110011001000000
          -14 -80 rlineto
          135 hlineto
          hintmask 1110100101000000
          -116 -60 -10 -60 rlineto
          66 hlineto
          hintmask 1110100011000000
          34 12 -15 -20 -4 hvcurveto
          -20 -3 -18 -15 -29 hhcurveto
          hintmask 1101010101000000
          -35 -30 30 -81 callsubr
          -48 -65 rlineto
          0 49 -45 80 vhcurveto
          endchar
        </CharString>
        <CharString name="threesuperior">
          -196 350 43 callsubr
          26 44 callsubr
          hintmask 01010100
          208 -6 callgsubr
          99 65 55 55 10 hvcurveto
          9 55 -37 45 -74 5 rrcurveto
          hintmask 10101000
          104 50 15 85 rlineto
          -250 hlineto
          hintmask 10011000
          -14 -80 rlineto
          135 hlineto
          hintmask 10100100
          -116 -60 -10 -60 rlineto
          66 hlineto
          hintmask 10100010
          34 12 -15 -20 -4 hvcurveto
          -20 -3 -18 -15 -29 hhcurveto
          hintmask 01010100
          -35 -30 30 -81 callsubr
          -48 -65 rlineto
          0 49 -45 80 vhcurveto
          endchar
        </CharString>
        <CharString name="tilde">
          -227 585 -17 callgsubr
          hintmask 01000000
          365 715 rmoveto
          -9 hlineto
          1 -23 -40 -25 hhcurveto
          hintmask 00100000
          -35 -13 45 -55 hhcurveto
          -50 -48 -50 -50 -14 hvcurveto
          51 -30 rlineto
          9 hlineto
          -1 23 40 25 hhcurveto
          hintmask 10000000
          35 12 -45 55 hhcurveto
          50 48 50 50 14 hvcurveto
          endchar
        </CharString>
        <CharString name="trademark">
          338 341 -21 300 80 hstem
          95 120 145 120 230 120 vstem
          448 10 callsubr
          -340 hlineto
          -14 -80 rlineto
          110 hlineto
          -53 -300 rlineto
          120 hlineto
          53 300 rlineto
          110 hlineto
          245 -130 rmoveto
          0 0 20 -7 20 vhcurveto
          -69 170 rlineto
          -120 hlineto
          -67 -380 rlineto
          120 hlineto
          25 145 rlineto
          5 25 3 15 callsubr
          5 hlineto
          0 3 -36 9 -24 vhcurveto
          36 -85 rlineto
          80 hlineto
          64 85 rlineto
          19 24 15 36 0 vvcurveto
          5 hlineto
          0 -9 -35 -5 -25 vhcurveto
          -25 -145 rlineto
          120 hlineto
          67 380 rlineto
          -120 hlineto
          -129 -170 rlineto
          -15 -20 -6 -20 0 vvcurveto
          endchar
        </CharString>
        <CharString name="two">
          -42 0 90 530 90 hstem
          -5 14 callgsubr
          335 710 rmoveto
          -135 -34 callsubr
          95 75 33 -40 -60 -11 vhcurveto
          -28 -160 -331 -60 -40 -230 -12 -70 rcurveline
          460 hlineto
          15 90 rlineto
          -320 hlineto
          -12 callgsubr
          332 70 37 210 rrcurveto
          120 22 -66 80 -165 hhcurveto
          endchar
        </CharString>
        <CharString name="twosuperior">
          -202 360 80 190 80 hstem
          10 120 45 120 vstem
          275 710 rmoveto
          -80 -65 -45 0 hvcurveto
          24 -65 rlineto
          10 hlineto
          0 42 30 35 30 12 -15 -20 -4 vhcurveto
          -8 -50 -165 0 -22 -125 -11 -60 rcurveline
          285 hlineto
          14 80 rlineto
          -165 hlineto
          9 50 165 0 18 105 rrcurveto
          65 12 -41 50 -95 hhcurveto
          endchar
        </CharString>
        <CharString name="u">
          -41 callgsubr
          hstemhm
          -49 callsubr
          hintmask 10111000
          274 -100 callsubr
          hintmask 01111000
          -84 callgsubr
          hintmask 10111000
          -16 callsubr
          endchar
        </CharString>
        <CharString name="uacute">
          -41 callgsubr
          60 150 -98 callsubr
          104 605 -101 callgsubr
        </CharString>
        <CharString name="ucircumflex">
          -41 callgsubr
          101 -64 callsubr
          -49 callsubr
          hintmask 10100110
          274 -100 callsubr
          hintmask 01100110
          -84 callgsubr
          hintmask 10100110
          -16 callsubr
          hintmask 00011000
          63 609 -98 callgsubr
        </CharString>
        <CharString name="udieresis">
          -41 callgsubr
          90 140 hstemhm
          -62 callgsubr
          -90 -32 callsubr
          -85 140 hintmask 10101001
          274 -100 callsubr
          hintmask 01101001
          -84 callgsubr
          hintmask 10101001
          -16 callsubr
          hintmask 00010110
          16 625 rmoveto
          -107 callsubr
        </CharString>
        <CharString name="ugrave">
          -41 callgsubr
          60 150 -98 callsubr
          -6 605 -83 callgsubr
        </CharString>
        <CharString name="uhungarumlaut">
          -41 callgsubr
          60 150 -98 callsubr
          34 605 rmoveto
          -42 callsubr
          45 hmoveto
          -42 callsubr
          endchar
        </CharString>
        <CharString name="umacron">
          -41 callgsubr
          80 90 -98 callsubr
          -40 565 -79 callsubr
        </CharString>
        <CharString name="underscore">
          -167 -140 100 hstem
          340 -140 rmoveto
          17 100 rlineto
          -389 35 callgsubr
        </CharString>
        <CharString name="uni00AD">
          -97 280 100 hstem
          449 24 callgsubr
        </CharString>
        <CharString name="uogonek">
          28 -37 callgsubr
          -40 callgsubr
          hstemhm
          -62 callgsubr
          145 8 callgsubr
          -175 140 hintmask 0010110010000000
          274 -100 callsubr
          hintmask 0001110010000000
          -84 callgsubr
          hintmask 0010110010000000
          -16 callsubr
          hintmask 1000001000000000
          165 -200 -44 callsubr
          hintmask 0100000100000000
          -99 callsubr
          hintmask 1000001000000000
          -39 callsubr
        </CharString>
        <CharString name="uring">
          33 -40 callgsubr
          65 65 80 65 hstemhm
          11 callgsubr
          -30 75 70 75 -30 140 hintmask 1010010010000000
          279 -100 callsubr
          hintmask 0110010010000000
          -84 callgsubr
          hintmask 1010010010000000
          -16 callsubr
          hintmask 0001101100000000
          70 565 -97 callgsubr
        </CharString>
        <CharString name="v">
          -57 -66 callsubr
          hstem
          300 hmoveto
          253 -30 callgsubr
          -91 callsubr
          -145 -310 rlineto
          -10 -20 41 callgsubr
          20 vhcurveto
          -35 310 rlineto
          -91 callsubr
          77 -5 callsubr
          endchar
        </CharString>
        <CharString name="w">
          193 -66 callsubr
          hstem
          508 500 rmoveto
          -91 callsubr
          -114 -275 rlineto
          -8 -20 -10 -66 callgsubr
          4 35 -2 20 vhcurveto
          -21 275 rlineto
          -91 callsubr
          47 -89 callsubr
          132 295 rlineto
          8 20 9 15 callsubr
          4 hlineto
          0 -3 -35 2 -20 vhcurveto
          28 -295 rlineto
          140 hlineto
          223 -30 callgsubr
          -91 callsubr
          -119 -275 rlineto
          -8 -20 -10 -66 callgsubr
          4 35 -2 20 vhcurveto
          endchar
        </CharString>
        <CharString name="x">
          -75 callsubr
        </CharString>
        <CharString name="y">
          -52 -210 90 141 -51 callgsubr
          hstem
          275 -101 callsubr
          endchar
        </CharString>
        <CharString name="yacute">
          -62 -210 90 141 -51 callgsubr
          60 -6 callsubr
          hintmask 11100000
          270 -101 callsubr
          hintmask 00010000
          -77 190 -101 callgsubr
        </CharString>
        <CharString name="ydieresis">
          -62 -210 90 141 -51 callgsubr
          90 140 hstemhm
          52 -32 callsubr
          hintmask 11100000
          270 -101 callsubr
          hintmask 00011100
          -166 210 rmoveto
          -107 callsubr
        </CharString>
        <CharString name="yen">
          13 21 -21 170 85 45 85 315 -20 hstem
          190 -56 callgsubr
          467 385 rmoveto
          201 315 rlineto
          -145 hlineto
          -177 -295 rlineto
          -67 callsubr
          -73 295 rlineto
          -145 hlineto
          89 -315 rlineto
          -70 hlineto
          -15 -85 rlineto
          105 hlineto
          12 -45 rlineto
          -125 hlineto
          -15 -85 rlineto
          140 hlineto
          -29 -170 rlineto
          140 hlineto
          29 170 rlineto
          140 hlineto
          15 85 rlineto
          -125 hlineto
          28 45 rlineto
          105 hlineto
          15 85 rlineto
          endchar
        </CharString>
        <CharString name="z">
          33 callsubr
          hstem
          -78 callgsubr
          endchar
        </CharString>
        <CharString name="zacute">
          33 callsubr
          50 -6 callsubr
          hintmask 11000000
          -78 callgsubr
          hintmask 00100000
          300 700 -101 callgsubr
        </CharString>
        <CharString name="zcaron">
          33 callsubr
          87 -64 callsubr
          hintmask 11000000
          -78 callgsubr
          hintmask 00110000
          344 566 -99 callgsubr
        </CharString>
        <CharString name="zdotaccent">
          33 callsubr
          60 -6 callsubr
          130 150 hintmask 11000000
          -78 callgsubr
          hintmask 00110000
          320 710 -88 callsubr
        </CharString>
        <CharString name="zero">
          53 18 callgsubr
          230 -56 callgsubr
          389 620 rmoveto
          60 45 -55 -215 -38 hvcurveto
          -215 -38 -64 -55 -60 hhcurveto
          -60 -46 55 215 38 hvcurveto
          215 38 65 55 60 hhcurveto
          16 90 rmoveto
          -150 -124 -105 -255 -45 hvcurveto
          -59 callgsubr
          150 hhcurveto
          150 123 105 255 45 hvcurveto
          255 45 -86 105 -150 hhcurveto
          endchar
        </CharString>
      <CharString index="0">
        309 420 rmoveto
        40 33 -40 -85 -15 hvcurveto
        -19 callgsubr
        85 15 47 40 40 hhcurveto
        -46 -430 rmoveto
        100 79 50 -89 callgsubr
        -47 -40 -65 -80 -33 40 85 15 vhcurveto
        270 hlineto
        35 30 4 25 21 callsubr
        29 -41 callsubr
        -135 -100 -85 -175 -30 hvcurveto
        -175 -31 70 -85 165 hhcurveto
        return
      </CharString>
      <CharString index="1">
        379 250 rmoveto
        -130 -23 -47 -40 -50 hhcurveto
        -50 -33 40 130 23 hvcurveto
        130 23 47 40 50 hhcurveto
        50 33 -40 -130 -23 hvcurveto
        140 hmoveto
        175 30 -70 85 -145 hhcurveto
        -145 -100 -85 -175 -30 hvcurveto
        -175 -31 70 -85 145 hhcurveto
        145 -48 callgsubr
        hvcurveto
        return
      </CharString>
      <CharString index="2">
        476 -6 callgsubr
        -210 -37 -70 -60 -65 hhcurveto
        -65 -50 60 210 37 hvcurveto
        210 37 71 60 65 hhcurveto
        65 49 -60 -210 -37 hvcurveto
        140 hmoveto
        255 45 -86 105 -160 hhcurveto
        -160 -124 -105 -255 -45 hvcurveto
        -59 callgsubr
        160 hhcurveto
        160 123 105 255 45 hvcurveto
        return
      </CharString>
      <CharString index="3">
        375 710 rmoveto
        -150 -100 -85 -105 -19 hvcurveto
        -39 -225 324 25 -25 -140 rrcurveto
        20 callsubr
        -80 hhcurveto
        -105 -34 callgsubr
        145 165 100 85 115 20 vhcurveto
        40 225 -325 -25 -12 callgsubr
        rrcurveto
        45 8 53 45 60 hhcurveto
        95 -94 callsubr
        -135 vhcurveto
        return
      </CharString>
      <CharString index="4">
        510 rmoveto
        -145 -76 -65 -85 -15 hvcurveto
        -30 -170 280 31 -15 -85 rrcurveto
        -31 -5 -29 -25 -70 hhcurveto
        -85 -43 40 -81 callsubr
        -59 -36 callsubr
        76 -50 120 155 76 65 91 16 vhcurveto
        30 170 -280 -31 15 85 rrcurveto
        25 4 30 25 55 hhcurveto
        75 43 -40 -97 callsubr
        -72 50 -110 vhcurveto
        return
      </CharString>
      <CharString index="5">
        hmoveto
        15 90 rlineto
        -280 hlineto
        41 230 rlineto
        220 -84 callsubr
        -220 hlineto
        35 200 -43 callsubr
        return
      </CharString>
      <CharString index="6">
        rmoveto
        0 callgsubr
        80 hlineto
        127 150 rlineto
        endchar
      </CharString>
      <CharString index="7">
        363 305 rmoveto
        -70 hlineto
        -160 -76 -65 -95 -17 hvcurveto
        -90 -16 54 -65 -69 callsubr
        return
      </CharString>
      <CharString index="8">
        rmoveto
        134 134 rlineto
        -95 hlineto
        -77 -70 -53 70 rlineto
        -95 hlineto
        86 21 callgsubr
        endchar
      </CharString>
      <CharString index="9">
        rmoveto
        -134 -134 -26 callsubr
        78 70 52 -70 -26 callsubr
        -86 134 rlineto
        endchar
      </CharString>
      <CharString index="10">
        rmoveto
        25 5 17 15 20 hhcurveto
        20 13 -15 -25 -5 hvcurveto
        -25 -4 -18 -15 -20 hhcurveto
        -20 -12 15 25 4 hvcurveto
        17 -105 rmoveto
        65 53 45 60 10 hvcurveto
        60 11 -37 45 -65 hhcurveto
        -65 -53 -45 -60 -11 hvcurveto
        -60 -10 37 -45 65 hhcurveto
        endchar
      </CharString>
      <CharString index="11">
        250 rmoveto
        101 -250 rlineto
        160 hlineto
        -122 275 rlineto
        0 136 35 29 165 vhcurveto
        -46 callsubr
        -190 -92 callgsubr
        -7 callsubr
        15 90 rmoveto
        19 callsubr
        50 hlineto
        90 33 -40 -95 -17 hvcurveto
        -95 -16 -48 -40 -90 hhcurveto
        return
      </CharString>
      <CharString index="12">
        0 -46 -60 -50 -45 -20 25 35 6 vhcurveto
        45 8 29 25 60 hhcurveto
        70 hlineto
        return
      </CharString>
      <CharString index="13">
        rmoveto
        -40 -41 -102 callsubr
        -29 35 -40 hhcurveto
        return
      </CharString>
      <CharString index="14">
        29 -35 40 hhcurveto
        40 -15 callsubr
        return
      </CharString>
      <CharString index="15">
        hlineto
        -90 callsubr
        return
      </CharString>
      <CharString index="16">
        -123 -57 callgsubr
        return
      </CharString>
      <CharString index="17">
        343 415 rmoveto
        38 callsubr
        hvcurveto
        -72 callsubr
        -120 hhcurveto
        -8 callsubr
        hvcurveto
        -5 hlineto
        return
      </CharString>
      <CharString index="18">
        0 hvcurveto
        -79 callgsubr
        return
      </CharString>
      <CharString index="19">
        53 -72 callgsubr
        hstemhm
        60 -9 callgsubr
        -115 115 -115 140 hintmask 11111000
        450 370 rmoveto
        0 128 20 23 130 vhcurveto
        105 19 -62 75 -165 hhcurveto
        -210 hlineto
        -91 callgsubr
        210 hlineto
        hintmask 11110010
        190 88 75 120 21 hvcurveto
        27 155 -146 20 0 vvcurveto
        -143 240 rmoveto
        70 hlineto
        hintmask 11111000
        60 33 -40 -60 -11 hvcurveto
        20 callsubr
        -60 hhcurveto
        -70 hlineto
        54 -90 rmoveto
        hintmask 11110100
        85 33 -40 -75 -13 hvcurveto
        -75 -14 -47 -40 -85 hhcurveto
        -70 hlineto
        41 230 rlineto
        endchar
      </CharString>
      <CharString index="20">
        500 rmoveto
        -88 -500 -32 callgsubr
        return
      </CharString>
      <CharString index="21">
        37 -45 -97 callsubr
        return
      </CharString>
      <CharString index="22">
        hmoveto
        140 6 callgsubr
        return
      </CharString>
      <CharString index="23">
        -60 100 vlineto
        -55 callgsubr
        -63 -355 rlineto
        return
      </CharString>
      <CharString index="24">
        rmoveto
        73 -150 rlineto
        80 hlineto
        -18 150 rlineto
        endchar
      </CharString>
      <CharString index="25">
        3 14 callsubr
        90 335 95 -10 -20 hstemhm
        45 -9 callgsubr
        hintmask 11101100
        247 355 rmoveto
        -7 callgsubr
        45 33 -40 -125 -22 vhcurveto
        -130 -23 -47 -40 -55 hhcurveto
        -45 -25 30 0 hvcurveto
        -195 -310 rmoveto
        100 hlineto
        47 40 32 180 rlineto
        0 35 -30 60 125 -48 callgsubr
        vhcurveto
        175 30 -70 85 -115 hhcurveto
        -8 callsubr
        hvcurveto
        -5 hlineto
        hintmask 11011100
        1 60 rlineto
        -100 hlineto
        endchar
      </CharString>
      <CharString index="26">
        80 rlineto
        -10 hlineto
        0 return
      </CharString>
      <CharString index="27">
        346 405 22 callsubr
        -73 295 rlineto
        -145 hlineto
        132 -470 -40 -230 37 callsubr
        298 470 rlineto
        -145 hlineto
        return
      </CharString>
      <CharString index="28">
        -31 -81 callgsubr
        return
      </CharString>
      <CharString index="29">
        410 hmoveto
        15 90 rlineto
        -240 hlineto
        291 315 17 95 rlineto
        -395 -59 callsubr
        235 hlineto
        -291 -315 -16 -95 rlineto
        return
      </CharString>
      <CharString index="30">
        rlineto
        140 hlineto
        41 235 99 -235 rlineto
        155 hlineto
        -125 260 203 240 rlineto
        -155 hlineto
        -168 -215 rlineto
        return
      </CharString>
      <CharString index="31">
        3 -75 callgsubr
        hstem
        355 485 22 callsubr
        -62 215 -36 callgsubr
        109 -345 -237 -355 -2 callsubr
        144 225 rlineto
        13 20 8 25 0 vvcurveto
        4 hlineto
        0 0 -25 5 -20 vhcurveto
        66 -225 -2 callsubr
        -113 355 231 345 -36 callgsubr
        endchar
      </CharString>
      <CharString index="32">
        21 -58 callgsubr
        return
      </CharString>
      <CharString index="33">
        500 rmoveto
        55 hlineto
        -92 callsubr
        52 295 rlineto
        0 40 60 55 45 25 -30 -65 -12 vhcurveto
        -45 -260 rlineto
        140 hlineto
        45 260 rlineto
        120 22 4 callgsubr
        17 95 rlineto
        125 -84 callsubr
        -125 hlineto
        19 110 rlineto
        -23 callgsubr
        -12 -70 rlineto
        -55 hlineto
        endchar
      </CharString>
      <CharString index="34">
        110 rmoveto
        0 -35 -30 -45 -55 -33 40 130 23 vhcurveto
        125 22 47 40 45 hhcurveto
        55 19 -60 0 hvcurveto
        return
      </CharString>
      <CharString index="35">
        0 90 230 90 200 90 return
      </CharString>
      <CharString index="36">
        438 500 rmoveto
        -184 -245 rlineto
        -22 -29 -13 -31 -83 callsubr
        9 30 5 30 vhcurveto
        44 245 -60 callgsubr
        135 hlineto
        183 245 rlineto
        22 29 13 31 0 vvcurveto
        4 hlineto
        0 -9 -30 -5 -30 vhcurveto
        -43 -245 -32 callgsubr
        return
      </CharString>
      <CharString index="37">
        15 7 13 10 10 hhcurveto
        10 9 -5 0 hvcurveto
        5 hlineto
        29 80 rlineto
        0 -33 15 -45 -70 -39 -35 -45 -20 vhcurveto
        -41 -90 rlineto
        -25 -11 -16 -15 -30 hhcurveto
        return
      </CharString>
      <CharString index="38">
        21 -21 16 callgsubr
        450 -20 return
      </CharString>
      <CharString index="39">
        rmoveto
        0 -41 -60 -55 -45 -32 40 125 22 vhcurveto
        130 23 47 40 55 hhcurveto
        45 24 -30 0 hvcurveto
        195 310 rmoveto
        -23 callgsubr
        -32 -180 rlineto
        0 -35 30 -60 -125 -100 -85 -175 -30 vhcurveto
        -175 -31 70 -85 115 -70 callsubr
        return
      </CharString>
      <CharString index="40">
        200 129 110 240 42 hvcurveto
        240 43 -91 110 -200 hhcurveto
        -170 hlineto
        return
      </CharString>
      <CharString index="41">
        -35 -83 callsubr
        return
      </CharString>
      <CharString index="42">
        160 140 return
      </CharString>
      <CharString index="43">
        -55 3 35 -45 70 hhcurveto
        55 32 15 0 hvcurveto
        4 80 rlineto
        -5 hlineto
        0 -9 -5 -10 -21 -9 10 25 vhcurveto
        -6 140 rlineto
        -3 95 return
      </CharString>
      <CharString index="44">
        -10 callsubr
        130 79 55 0 hvcurveto
        54 305 -33 40 rlineto
        -205 -59 callsubr
        return
      </CharString>
      <CharString index="45">
        45 140 return
      </CharString>
      <CharString index="46">
        40 7 -28 35 -40 hhcurveto
        8 50 72 15 callsubr
        -23 40 rlineto
        0 -118 -45 -26 -145 vhcurveto
        -50 -9 29 -35 45 hhcurveto
        return
      </CharString>
      <CharString index="47">
        rlineto
        -91 callsubr
        -25 callsubr
        return
      </CharString>
      <CharString index="48">
        -255 -45 87 -105 return
      </CharString>
      <CharString index="49">
        -21 700 -20 return
      </CharString>
      <CharString index="50">
        -700 rlineto
        return
      </CharString>
      <CharString index="51">
        140 vstem
        return
      </CharString>
      <CharString index="52">
        -63 callsubr
        -91 callsubr
        return
      </CharString>
      <CharString index="53">
        145 vhcurveto
        50 9 -29 35 -45 hhcurveto
        return
      </CharString>
      <CharString index="54">
        hlineto
        165 70 60 110 19 hvcurveto
        110 20 -50 60 -165 hhcurveto
        -15 -90 rmoveto
        55 24 -30 -50 -9 hvcurveto
        return
      </CharString>
      <CharString index="55">
        36 200 -60 callgsubr
        140 hlineto
        37 210 rlineto
        return
      </CharString>
      <CharString index="56">
        -21 500 -20 return
      </CharString>
      <CharString index="57">
        -10 -15 callgsubr
        return
      </CharString>
      <CharString index="58">
        65 33 -40 -97 callsubr
        return
      </CharString>
      <CharString index="59">
        100 85 175 31 return
      </CharString>
      <CharString index="60">
        -57 callgsubr
        140 hlineto
        return
      </CharString>
      <CharString index="61">
        rlineto
        140 6 callgsubr
        return
      </CharString>
      <CharString index="62">
        60 140 return
      </CharString>
      <CharString index="63">
        hmoveto
        16 callsubr
        593 700 -36 callgsubr
        return
      </CharString>
      <CharString index="64">
        -16 -90 rlineto
        290 hlineto
        return
      </CharString>
      <CharString index="65">
        -34 rlineto
        0 93 50 21 115 vhcurveto
        47 8 -23 28 -42 hhcurveto
        -32 -33 -28 -37 -7 hvcurveto
        return
      </CharString>
      <CharString index="66">
        23 -40 callgsubr
        return
      </CharString>
      <CharString index="67">
        -10 95 -64 -51 callgsubr
        return
      </CharString>
      <CharString index="68">
        -91 callsubr
        -108 -610 rlineto
        -180 hlineto
        108 610 rlineto
        -91 callsubr
        -108 -610 rlineto
        -180 hlineto
        108 610 rlineto
        -91 callsubr
        return
      </CharString>
      <CharString index="69">
        -10 90 620 -20 return
      </CharString>
      <CharString index="70">
        -185 70 -70 185 return
      </CharString>
      <CharString index="71">
        -20 callsubr
        hlineto
        return
      </CharString>
      <CharString index="72">
        -7 -150 rlineto
        105 hlineto
        42 240 rlineto
        -65 hlineto
        108 610 rlineto
        return
      </CharString>
      <CharString index="73">
        -37 45 -81 callsubr
        -60 -36 callsubr
        61 -55 return
      </CharString>
      <CharString index="74">
        166 145 rmoveto
        -100 hlineto
        -21 -60 rlineto
        -5 hlineto
        return
      </CharString>
      <CharString index="75">
        rlineto
        140 hlineto
        -63 callsubr
        return
      </CharString>
      <CharString index="76">
        35 200 rlineto
        return
      </CharString>
      <CharString index="77">
        500 rlineto
        return
      </CharString>
      <CharString index="78">
        -5 -140 rlineto
        105 hlineto
        40 230 rlineto
        -65 hlineto
        73 410 rlineto
        return
      </CharString>
      <CharString index="79">
        rlineto
        -91 callsubr
        -91 callgsubr
        return
      </CharString>
      <CharString index="80">
        21 callsubr
        hlineto
        18 100 rlineto
        -165 hlineto
        29 165 rlineto
        -100 hlineto
        -29 -165 rlineto
        -165 hlineto
        -18 -100 21 callsubr
        hlineto
        return
      </CharString>
      <CharString index="81">
        -66 80 -190 hhcurveto
        return
      </CharString>
      <CharString index="82">
        -50 -9 -23 -20 12 callgsubr
      </CharString>
      <CharString index="83">
        hstemhm
        -45 callgsubr
        return
      </CharString>
      <CharString index="84">
        -100 hlineto
        -47 -40 return
      </CharString>
      <CharString index="85">
        hstem
        45 -56 callgsubr
        483 500 rmoveto
        -350 hlineto
        -92 callsubr
        72 410 rlineto
        210 hlineto
        return
      </CharString>
      <CharString index="86">
        140 200 -56 callgsubr
        return
      </CharString>
      <CharString index="87">
        -195 55 60 55 -55 100 return
      </CharString>
      <CharString index="88">
        -160 hlineto
        return
      </CharString>
      <CharString index="89">
        -64 callsubr
        -51 callsubr
        return
      </CharString>
      <CharString index="90">
        90 -45 45 -45 90 hstemhm
        return
      </CharString>
      <CharString index="91">
        -7 callgsubr
        vhcurveto
        return
      </CharString>
      <CharString index="92">
        95 -64 -21 return
      </CharString>
      <CharString index="93">
        -40 -41 34 callsubr
        28 -35 40 hhcurveto
        40 42 35 40 7 hvcurveto
        40 7 -29 35 -40 hhcurveto
        return
      </CharString>
      <CharString index="94">
        -140 230 -90 90 410 -20 hstemhm
        -62 callgsubr
        return
      </CharString>
      <CharString index="95">
        25 140 return
      </CharString>
      <CharString index="96">
        110 100 110 return
      </CharString>
      <CharString index="97">
        0 70 -59 -21 280 80 0 80 200 80 -10 -20 hstemhm
        -5 5 callsubr
        return
      </CharString>
      <CharString index="98">
        140 170 140 return
      </CharString>
      <CharString index="99">
        -10 90 -59 -21 return
      </CharString>
      <CharString index="100">
        0 41 60 55 return
      </CharString>
      <CharString index="101">
        350 rmoveto
        return
      </CharString>
      <CharString index="102">
        -57 callsubr
        endchar
      </CharString>
      <CharString index="103">
        rmoveto
        12 11 10 20 0 vvcurveto
        4 hlineto
        0 -9 -20 -1 -10 vhcurveto
        -12 -65 rlineto
        -70 hlineto
        return
      </CharString>
      <CharString index="104">
        hstemhm
        11 callgsubr
        -24 callsubr
        return
      </CharString>
      <CharString index="105">
        -65 callgsubr
        vstem
        return
      </CharString>
      <CharString index="106">
        90 125 90 return
      </CharString>
      <CharString index="107">
        -72 -150 rlineto
        return
      </CharString>
      <CharString index="108">
        455 245 hstem
        115 455 rmoveto
        85 hlineto
        68 245 rlineto
        -135 hlineto
        return
      </CharString>
      <CharString index="109">
        -21 125 -6 callsubr
        10 150 -75 75 40 150 -75 75 hintmask 11101000
        return
      </CharString>
      <CharString index="110">
        -190 hhcurveto
        -16 -90 rmoveto
        90 33 -40 -85 -15 hvcurveto
        -85 -15 -47 -40 -90 hhcurveto
        return
      </CharString>
      <CharString index="111">
        -58 70 -120 hhcurveto
        -70 -48 -45 0 hvcurveto
        return
      </CharString>
      <CharString index="112">
        -35 -41 -35 -40 -7 hvcurveto
        return
      </CharString>
      <CharString index="113">
        hlineto
        123 -55 callsubr
        return
      </CharString>
      <CharString index="114">
        rlineto
        140 hlineto
        endchar
      </CharString>
      <CharString index="115">
        90 -90 190 return
      </CharString>
      <CharString index="116">
        110 120 return
      </CharString>
      <CharString index="117">
        -140 140 return
      </CharString>
      <CharString index="118">
        50 140 return
      </CharString>
      <CharString index="119">
        -30 hhcurveto
        endchar
      </CharString>
      <CharString index="120">
        21 32 callsubr
        return
      </CharString>
      <CharString index="121">
        140 180 -56 callgsubr
        return
      </CharString>
      <CharString index="122">
        -24 callsubr
        vstem
        return
      </CharString>
      <CharString index="123">
        160 90 return
      </CharString>
      <CharString index="124">
        -87 callgsubr
        hintmask 00100000
        return
      </CharString>
</ttFont>
